<svg width="288" height="295" viewBox="0 0 288 295" fill="none" xmlns="http://www.w3.org/2000/svg">
<rect width="288" height="295" fill="#C4C4C4"/>
<path d="M39.74 218.133C40.5533 218.307 41.2067 218.713 41.7 219.353C42.1933 219.98 42.44 220.7 42.44 221.513C42.44 222.687 42.0267 223.62 41.2 224.313C40.3867 224.993 39.2467 225.333 37.78 225.333H31.24V211.293H37.56C38.9867 211.293 40.1 211.62 40.9 212.273C41.7133 212.927 42.12 213.813 42.12 214.933C42.12 215.76 41.9 216.447 41.46 216.993C41.0333 217.54 40.46 217.92 39.74 218.133ZM34.66 216.973H36.9C37.46 216.973 37.8867 216.853 38.18 216.613C38.4867 216.36 38.64 215.993 38.64 215.513C38.64 215.033 38.4867 214.667 38.18 214.413C37.8867 214.16 37.46 214.033 36.9 214.033H34.66V216.973ZM37.18 222.573C37.7533 222.573 38.1933 222.447 38.5 222.193C38.82 221.927 38.98 221.547 38.98 221.053C38.98 220.56 38.8133 220.173 38.48 219.893C38.16 219.613 37.7133 219.473 37.14 219.473H34.66V222.573H37.18ZM47.8436 216.033C48.2436 215.42 48.7436 214.94 49.3436 214.593C49.9436 214.233 50.6103 214.053 51.3436 214.053V217.673H50.4036C49.5503 217.673 48.9103 217.86 48.4836 218.233C48.0569 218.593 47.8436 219.233 47.8436 220.153V225.333H44.4236V214.173H47.8436V216.033ZM52.2983 219.733C52.2983 218.587 52.5116 217.58 52.9383 216.713C53.3783 215.847 53.9716 215.18 54.7183 214.713C55.4649 214.247 56.2983 214.013 57.2183 214.013C58.0049 214.013 58.6916 214.173 59.2783 214.493C59.8783 214.813 60.3383 215.233 60.6583 215.753V214.173H64.0783V225.333H60.6583V223.753C60.3249 224.273 59.8583 224.693 59.2583 225.013C58.6716 225.333 57.9849 225.493 57.1983 225.493C56.2916 225.493 55.4649 225.26 54.7183 224.793C53.9716 224.313 53.3783 223.64 52.9383 222.773C52.5116 221.893 52.2983 220.88 52.2983 219.733ZM60.6583 219.753C60.6583 218.9 60.4183 218.227 59.9383 217.733C59.4716 217.24 58.8983 216.993 58.2183 216.993C57.5383 216.993 56.9583 217.24 56.4783 217.733C56.0116 218.213 55.7783 218.88 55.7783 219.733C55.7783 220.587 56.0116 221.267 56.4783 221.773C56.9583 222.267 57.5383 222.513 58.2183 222.513C58.8983 222.513 59.4716 222.267 59.9383 221.773C60.4183 221.28 60.6583 220.607 60.6583 219.753ZM73.3525 214.053C74.6592 214.053 75.6992 214.48 76.4725 215.333C77.2592 216.173 77.6525 217.333 77.6525 218.813V225.333H74.2525V219.273C74.2525 218.527 74.0592 217.947 73.6725 217.533C73.2858 217.12 72.7658 216.913 72.1125 216.913C71.4592 216.913 70.9392 217.12 70.5525 217.533C70.1658 217.947 69.9725 218.527 69.9725 219.273V225.333H66.5525V214.173H69.9725V215.653C70.3192 215.16 70.7858 214.773 71.3725 214.493C71.9592 214.2 72.6192 214.053 73.3525 214.053ZM79.3491 219.733C79.3491 218.587 79.5624 217.58 79.9891 216.713C80.4291 215.847 81.0224 215.18 81.7691 214.713C82.5157 214.247 83.3491 214.013 84.2691 214.013C85.0024 214.013 85.6691 214.167 86.2691 214.473C86.8824 214.78 87.3624 215.193 87.7091 215.713V210.533H91.1291V225.333H87.7091V223.733C87.3891 224.267 86.9291 224.693 86.3291 225.013C85.7424 225.333 85.0557 225.493 84.2691 225.493C83.3491 225.493 82.5157 225.26 81.7691 224.793C81.0224 224.313 80.4291 223.64 79.9891 222.773C79.5624 221.893 79.3491 220.88 79.3491 219.733ZM87.7091 219.753C87.7091 218.9 87.4691 218.227 86.9891 217.733C86.5224 217.24 85.9491 216.993 85.2691 216.993C84.5891 216.993 84.0091 217.24 83.5291 217.733C83.0624 218.213 82.8291 218.88 82.8291 219.733C82.8291 220.587 83.0624 221.267 83.5291 221.773C84.0091 222.267 84.5891 222.513 85.2691 222.513C85.9491 222.513 86.5224 222.267 86.9891 221.773C87.4691 221.28 87.7091 220.607 87.7091 219.753ZM95.3233 213.013C94.7233 213.013 94.2299 212.84 93.8433 212.493C93.4699 212.133 93.2833 211.693 93.2833 211.173C93.2833 210.64 93.4699 210.2 93.8433 209.853C94.2299 209.493 94.7233 209.313 95.3233 209.313C95.9099 209.313 96.3899 209.493 96.7633 209.853C97.1499 210.2 97.3433 210.64 97.3433 211.173C97.3433 211.693 97.1499 212.133 96.7633 212.493C96.3899 212.84 95.9099 213.013 95.3233 213.013ZM97.0233 214.173V225.333H93.6033V214.173H97.0233ZM106.302 214.053C107.608 214.053 108.648 214.48 109.422 215.333C110.208 216.173 110.602 217.333 110.602 218.813V225.333H107.202V219.273C107.202 218.527 107.008 217.947 106.622 217.533C106.235 217.12 105.715 216.913 105.062 216.913C104.408 216.913 103.888 217.12 103.502 217.533C103.115 217.947 102.922 218.527 102.922 219.273V225.333H99.5017V214.173H102.922V215.653C103.268 215.16 103.735 214.773 104.322 214.493C104.908 214.2 105.568 214.053 106.302 214.053ZM117.218 214.013C118.005 214.013 118.692 214.173 119.278 214.493C119.878 214.813 120.338 215.233 120.658 215.753V214.173H124.078V225.313C124.078 226.34 123.872 227.267 123.458 228.093C123.058 228.933 122.438 229.6 121.598 230.093C120.772 230.587 119.738 230.833 118.498 230.833C116.845 230.833 115.505 230.44 114.478 229.653C113.452 228.88 112.865 227.827 112.718 226.493H116.098C116.205 226.92 116.458 227.253 116.858 227.493C117.258 227.747 117.752 227.873 118.338 227.873C119.045 227.873 119.605 227.667 120.018 227.253C120.445 226.853 120.658 226.207 120.658 225.313V223.733C120.325 224.253 119.865 224.68 119.278 225.013C118.692 225.333 118.005 225.493 117.218 225.493C116.298 225.493 115.465 225.26 114.718 224.793C113.972 224.313 113.378 223.64 112.938 222.773C112.512 221.893 112.298 220.88 112.298 219.733C112.298 218.587 112.512 217.58 112.938 216.713C113.378 215.847 113.972 215.18 114.718 214.713C115.465 214.247 116.298 214.013 117.218 214.013ZM120.658 219.753C120.658 218.9 120.418 218.227 119.938 217.733C119.472 217.24 118.898 216.993 118.218 216.993C117.538 216.993 116.958 217.24 116.478 217.733C116.012 218.213 115.778 218.88 115.778 219.733C115.778 220.587 116.012 221.267 116.478 221.773C116.958 222.267 117.538 222.513 118.218 222.513C118.898 222.513 119.472 222.267 119.938 221.773C120.418 221.28 120.658 220.607 120.658 219.753ZM36.5 235.293C37.98 235.293 39.2733 235.587 40.38 236.173C41.4867 236.76 42.34 237.587 42.94 238.653C43.5533 239.707 43.86 240.927 43.86 242.313C43.86 243.687 43.5533 244.907 42.94 245.973C42.34 247.04 41.48 247.867 40.36 248.453C39.2533 249.04 37.9667 249.333 36.5 249.333H31.24V235.293H36.5ZM36.28 246.373C37.5733 246.373 38.58 246.02 39.3 245.313C40.02 244.607 40.38 243.607 40.38 242.313C40.38 241.02 40.02 240.013 39.3 239.293C38.58 238.573 37.5733 238.213 36.28 238.213H34.66V246.373H36.28ZM56.2912 243.573C56.2912 243.893 56.2713 244.227 56.2313 244.573H48.4913C48.5446 245.267 48.7646 245.8 49.1513 246.173C49.5513 246.533 50.0379 246.713 50.6113 246.713C51.4646 246.713 52.0579 246.353 52.3913 245.633H56.0313C55.8446 246.367 55.5046 247.027 55.0113 247.613C54.5313 248.2 53.9246 248.66 53.1913 248.993C52.4579 249.327 51.6379 249.493 50.7313 249.493C49.6379 249.493 48.6646 249.26 47.8113 248.793C46.9579 248.327 46.2913 247.66 45.8113 246.793C45.3313 245.927 45.0913 244.913 45.0913 243.753C45.0913 242.593 45.3246 241.58 45.7913 240.713C46.2713 239.847 46.9379 239.18 47.7913 238.713C48.6446 238.247 49.6246 238.013 50.7313 238.013C51.8113 238.013 52.7713 238.24 53.6113 238.693C54.4513 239.147 55.1046 239.793 55.5713 240.633C56.0513 241.473 56.2912 242.453 56.2912 243.573ZM52.7913 242.673C52.7913 242.087 52.5913 241.62 52.1913 241.273C51.7913 240.927 51.2913 240.753 50.6913 240.753C50.1179 240.753 49.6313 240.92 49.2313 241.253C48.8446 241.587 48.6046 242.06 48.5113 242.673H52.7913ZM62.6355 249.493C61.6621 249.493 60.7955 249.327 60.0355 248.993C59.2755 248.66 58.6755 248.207 58.2355 247.633C57.7955 247.047 57.5488 246.393 57.4955 245.673H60.8755C60.9155 246.06 61.0955 246.373 61.4155 246.613C61.7355 246.853 62.1288 246.973 62.5955 246.973C63.0221 246.973 63.3488 246.893 63.5755 246.733C63.8155 246.56 63.9355 246.34 63.9355 246.073C63.9355 245.753 63.7688 245.52 63.4355 245.373C63.1021 245.213 62.5621 245.04 61.8155 244.853C61.0155 244.667 60.3488 244.473 59.8155 244.273C59.2821 244.06 58.8221 243.733 58.4355 243.293C58.0488 242.84 57.8555 242.233 57.8555 241.473C57.8555 240.833 58.0288 240.253 58.3755 239.733C58.7355 239.2 59.2555 238.78 59.9355 238.473C60.6288 238.167 61.4488 238.013 62.3955 238.013C63.7955 238.013 64.8955 238.36 65.6955 239.053C66.5088 239.747 66.9755 240.667 67.0955 241.813H63.9355C63.8821 241.427 63.7088 241.12 63.4155 240.893C63.1355 240.667 62.7621 240.553 62.2955 240.553C61.8955 240.553 61.5888 240.633 61.3755 240.793C61.1621 240.94 61.0555 241.147 61.0555 241.413C61.0555 241.733 61.2221 241.973 61.5555 242.133C61.9021 242.293 62.4355 242.453 63.1555 242.613C63.9821 242.827 64.6555 243.04 65.1755 243.253C65.6955 243.453 66.1488 243.787 66.5355 244.253C66.9355 244.707 67.1421 245.32 67.1555 246.093C67.1555 246.747 66.9688 247.333 66.5955 247.853C66.2355 248.36 65.7088 248.76 65.0155 249.053C64.3355 249.347 63.5421 249.493 62.6355 249.493ZM70.9678 237.013C70.3678 237.013 69.8745 236.84 69.4878 236.493C69.1145 236.133 68.9278 235.693 68.9278 235.173C68.9278 234.64 69.1145 234.2 69.4878 233.853C69.8745 233.493 70.3678 233.313 70.9678 233.313C71.5545 233.313 72.0345 233.493 72.4078 233.853C72.7945 234.2 72.9878 234.64 72.9878 235.173C72.9878 235.693 72.7945 236.133 72.4078 236.493C72.0345 236.84 71.5545 237.013 70.9678 237.013ZM72.6678 238.173V249.333H69.2478V238.173H72.6678ZM79.3863 238.013C80.1729 238.013 80.8596 238.173 81.4463 238.493C82.0463 238.813 82.5063 239.233 82.8263 239.753V238.173H86.2463V249.313C86.2463 250.34 86.0396 251.267 85.6263 252.093C85.2263 252.933 84.6063 253.6 83.7663 254.093C82.9396 254.587 81.9063 254.833 80.6663 254.833C79.0129 254.833 77.6729 254.44 76.6463 253.653C75.6196 252.88 75.0329 251.827 74.8863 250.493H78.2663C78.3729 250.92 78.6263 251.253 79.0263 251.493C79.4263 251.747 79.9196 251.873 80.5063 251.873C81.2129 251.873 81.7729 251.667 82.1863 251.253C82.6129 250.853 82.8263 250.207 82.8263 249.313V247.733C82.4929 248.253 82.0329 248.68 81.4463 249.013C80.8596 249.333 80.1729 249.493 79.3863 249.493C78.4663 249.493 77.6329 249.26 76.8863 248.793C76.1396 248.313 75.5463 247.64 75.1063 246.773C74.6796 245.893 74.4663 244.88 74.4663 243.733C74.4663 242.587 74.6796 241.58 75.1063 240.713C75.5463 239.847 76.1396 239.18 76.8863 238.713C77.6329 238.247 78.4663 238.013 79.3863 238.013ZM82.8263 243.753C82.8263 242.9 82.5863 242.227 82.1063 241.733C81.6396 241.24 81.0663 240.993 80.3863 240.993C79.7063 240.993 79.1263 241.24 78.6463 241.733C78.1796 242.213 77.9463 242.88 77.9463 243.733C77.9463 244.587 78.1796 245.267 78.6463 245.773C79.1263 246.267 79.7063 246.513 80.3863 246.513C81.0663 246.513 81.6396 246.267 82.1063 245.773C82.5863 245.28 82.8263 244.607 82.8263 243.753ZM95.5205 238.053C96.8271 238.053 97.8671 238.48 98.6405 239.333C99.4271 240.173 99.8205 241.333 99.8205 242.813V249.333H96.4205V243.273C96.4205 242.527 96.2271 241.947 95.8405 241.533C95.4538 241.12 94.9338 240.913 94.2805 240.913C93.6271 240.913 93.1071 241.12 92.7205 241.533C92.3338 241.947 92.1405 242.527 92.1405 243.273V249.333H88.7205V238.173H92.1405V239.653C92.4871 239.16 92.9538 238.773 93.5405 238.493C94.1271 238.2 94.7871 238.053 95.5205 238.053ZM112.717 243.573C112.717 243.893 112.697 244.227 112.657 244.573H104.917C104.97 245.267 105.19 245.8 105.577 246.173C105.977 246.533 106.464 246.713 107.037 246.713C107.89 246.713 108.484 246.353 108.817 245.633H112.457C112.27 246.367 111.93 247.027 111.437 247.613C110.957 248.2 110.35 248.66 109.617 248.993C108.884 249.327 108.064 249.493 107.157 249.493C106.064 249.493 105.09 249.26 104.237 248.793C103.384 248.327 102.717 247.66 102.237 246.793C101.757 245.927 101.517 244.913 101.517 243.753C101.517 242.593 101.75 241.58 102.217 240.713C102.697 239.847 103.364 239.18 104.217 238.713C105.07 238.247 106.05 238.013 107.157 238.013C108.237 238.013 109.197 238.24 110.037 238.693C110.877 239.147 111.53 239.793 111.997 240.633C112.477 241.473 112.717 242.453 112.717 243.573ZM109.217 242.673C109.217 242.087 109.017 241.62 108.617 241.273C108.217 240.927 107.717 240.753 107.117 240.753C106.544 240.753 106.057 240.92 105.657 241.253C105.27 241.587 105.03 242.06 104.937 242.673H109.217ZM117.941 240.033C118.341 239.42 118.841 238.94 119.441 238.593C120.041 238.233 120.708 238.053 121.441 238.053V241.673H120.501C119.648 241.673 119.008 241.86 118.581 242.233C118.155 242.593 117.941 243.233 117.941 244.153V249.333H114.521V238.173H117.941V240.033Z" fill="#222A36"/>
<path d="M52.105 171.429C52.7563 170.619 52.1425 169.458 51.06 169.458H42.665C42.1963 169.458 41.7625 169.694 41.5288 170.075L35.1763 180.469C34.675 181.288 35.305 182.309 36.3113 182.309H40.5975L36.56 192.223C35.9763 193.476 37.5538 194.623 38.6138 193.716L55 178.469H46.4388L52.105 171.429V171.429Z" stroke="#222A36" stroke-width="2" stroke-linecap="round" stroke-linejoin="round"/>
</svg>
