<svg width="25" height="25" viewBox="0 0 25 25" fill="none" xmlns="http://www.w3.org/2000/svg">
<path d="M22.9167 12.5C22.9184 13.8721 22.6483 15.2309 22.1218 16.4979C21.5954 17.7649 20.823 18.915 19.8495 19.8818C18.8839 20.8457 17.7378 21.6099 16.4767 22.1306C15.2157 22.6514 13.8644 22.9185 12.5 22.9167C6.74688 22.9167 2.08334 18.2532 2.08334 12.5C2.0797 9.8291 3.10567 7.25951 4.94792 5.32557C5.91997 4.29984 7.09111 3.48325 8.38965 2.92577C9.6882 2.36829 11.0868 2.08165 12.5 2.08338C13.8644 2.08162 15.2157 2.34874 16.4767 2.86948C17.7378 3.39023 18.8839 4.15438 19.8495 5.11828C20.823 6.08506 21.5954 7.23519 22.1218 8.50221C22.6483 9.76923 22.9184 11.128 22.9167 12.5V12.5Z" stroke="white" stroke-width="2" stroke-linecap="round" stroke-linejoin="round"/>
<path d="M22.9167 12.5001C21.3969 12.5001 17.2042 11.9272 13.4516 13.5746C9.37501 15.3647 6.42344 18.1412 5.13699 19.8683" stroke="white" stroke-width="2" stroke-linecap="round" stroke-linejoin="round"/>
<path d="M8.59375 2.8407C10.224 4.34539 13.7812 8.17664 15.1042 11.9792C16.4271 15.7824 16.9167 20.4584 17.2188 21.7891" stroke="white" stroke-width="2" stroke-linecap="round" stroke-linejoin="round"/>
<path d="M2.16354 11.198C4.13125 11.3167 9.34011 11.4235 12.6734 10.0001C16.0068 8.57664 18.875 5.95841 19.8589 5.12769" stroke="white" stroke-width="2" stroke-linecap="round" stroke-linejoin="round"/>
<path d="M2.86459 16.4652C3.78246 18.687 5.43787 20.5247 7.55209 21.6689" stroke="white" stroke-width="2" stroke-linecap="round" stroke-linejoin="round"/>
<path d="M2.08334 12.5C2.0797 9.82909 3.10567 7.2595 4.94792 5.32556" stroke="white" stroke-width="2" stroke-linecap="round" stroke-linejoin="round"/>
<path d="M12.5 2.08338C11.0868 2.08165 9.6882 2.36829 8.38965 2.92577C7.0911 3.48325 5.91997 4.29984 4.94791 5.32557" stroke="white" stroke-width="2" stroke-linecap="round" stroke-linejoin="round"/>
<path d="M16.6667 2.95007C17.8529 3.4691 18.9322 4.20436 19.8495 5.1183C20.823 6.08509 21.5954 7.23522 22.1218 8.50223C22.6483 9.76925 22.9184 11.128 22.9167 12.5001C22.9167 13.7829 22.6849 15.011 22.2604 16.1459" stroke="white" stroke-width="2" stroke-linecap="round" stroke-linejoin="round"/>
<path d="M12.5 22.9167C13.8644 22.9185 15.2157 22.6514 16.4767 22.1306C17.7378 21.6099 18.8839 20.8457 19.8495 19.8818" stroke="white" stroke-width="2" stroke-linecap="round" stroke-linejoin="round"/>
</svg>
