<svg width="325" height="25" viewBox="0 0 325 25" fill="none" xmlns="http://www.w3.org/2000/svg">
<path d="M22.9167 12.5C22.9184 13.8721 22.6483 15.2309 22.1218 16.4979C21.5954 17.7649 20.823 18.915 19.8495 19.8818C18.8839 20.8457 17.7378 21.6099 16.4767 22.1306C15.2157 22.6514 13.8644 22.9185 12.5 22.9167C6.74688 22.9167 2.08334 18.2532 2.08334 12.5C2.0797 9.8291 3.10567 7.25951 4.94792 5.32557C5.91997 4.29984 7.09111 3.48325 8.38965 2.92577C9.6882 2.36829 11.0868 2.08165 12.5 2.08338C13.8644 2.08162 15.2157 2.34874 16.4767 2.86948C17.7378 3.39023 18.8839 4.15438 19.8495 5.11828C20.823 6.08506 21.5954 7.23519 22.1218 8.50221C22.6483 9.76923 22.9184 11.128 22.9167 12.5V12.5Z" stroke="white" stroke-width="2" stroke-linecap="round" stroke-linejoin="round"/>
<path d="M22.9167 12.5001C21.3969 12.5001 17.2042 11.9272 13.4516 13.5746C9.37501 15.3647 6.42344 18.1412 5.13699 19.8683" stroke="white" stroke-width="2" stroke-linecap="round" stroke-linejoin="round"/>
<path d="M8.59375 2.8407C10.224 4.34539 13.7812 8.17664 15.1042 11.9792C16.4271 15.7824 16.9167 20.4584 17.2188 21.7891" stroke="white" stroke-width="2" stroke-linecap="round" stroke-linejoin="round"/>
<path d="M2.16354 11.198C4.13125 11.3167 9.34011 11.4235 12.6734 10.0001C16.0068 8.57664 18.875 5.95841 19.8589 5.12769" stroke="white" stroke-width="2" stroke-linecap="round" stroke-linejoin="round"/>
<path d="M2.86459 16.4652C3.78246 18.687 5.43787 20.5247 7.55209 21.6689" stroke="white" stroke-width="2" stroke-linecap="round" stroke-linejoin="round"/>
<path d="M2.08334 12.5C2.0797 9.82909 3.10567 7.2595 4.94792 5.32556" stroke="white" stroke-width="2" stroke-linecap="round" stroke-linejoin="round"/>
<path d="M12.5 2.08338C11.0868 2.08165 9.6882 2.36829 8.38965 2.92577C7.0911 3.48325 5.91997 4.29984 4.94791 5.32557" stroke="white" stroke-width="2" stroke-linecap="round" stroke-linejoin="round"/>
<path d="M16.6667 2.95007C17.8529 3.4691 18.9322 4.20436 19.8495 5.1183C20.823 6.08509 21.5954 7.23522 22.1218 8.50223C22.6483 9.76925 22.9184 11.128 22.9167 12.5001C22.9167 13.7829 22.6849 15.011 22.2604 16.1459" stroke="white" stroke-width="2" stroke-linecap="round" stroke-linejoin="round"/>
<path d="M12.5 22.9167C13.8644 22.9185 15.2157 22.6514 16.4767 22.1306C17.7378 21.6099 18.8839 20.8457 19.8495 19.8818" stroke="white" stroke-width="2" stroke-linecap="round" stroke-linejoin="round"/>
<path d="M94.3359 13.7047C93.1883 13.7047 92.1102 13.2203 91.1336 12.4274L91.3695 11.3086L91.3773 11.2641C91.593 10.0758 92.2602 8.07815 94.3352 8.07815C95.0818 8.07836 95.7979 8.37507 96.3259 8.90306C96.8539 9.43104 97.1506 10.1471 97.1508 10.8938C97.1495 11.6398 96.8524 12.3548 96.3245 12.882C95.7966 13.4091 95.0812 13.7053 94.3352 13.7055L94.3359 13.7047ZM94.3359 5.22893C91.6914 5.22893 89.6359 6.94612 88.8023 9.77424C87.5328 7.86565 86.5641 5.57112 86.0031 3.63831H83.1547V11.0477C83.1532 11.7509 82.8733 12.4249 82.376 12.9221C81.8788 13.4194 81.2048 13.6994 80.5016 13.7008C79.7985 13.6987 79.1249 13.4186 78.6278 12.9214C78.1307 12.4243 77.8505 11.7507 77.8484 11.0477V3.63831H75V11.0477C75 14.0828 77.4695 16.5696 80.5016 16.5696C83.5367 16.5696 86.0031 14.0836 86.0031 11.0477V9.80627C86.5562 10.9578 87.2359 12.1297 88.0617 13.1633L86.3164 21.3625H89.2297L90.4953 15.4133C91.6023 16.1211 92.8758 16.5688 94.3367 16.5688C97.4617 16.5688 100.001 14.0133 100.001 10.8922C100.001 7.76721 97.4617 5.22815 94.3367 5.22815L94.3359 5.22893Z" fill="white"/>
<path d="M174.479 6.77812C174.338 6.27316 174.062 5.81598 173.681 5.45521C173.29 5.08333 172.81 4.81733 172.288 4.68229C170.331 4.16666 162.494 4.16666 162.494 4.16666C159.227 4.12949 155.96 4.29299 152.713 4.65625C152.19 4.80126 151.711 5.07321 151.319 5.44791C150.933 5.81875 150.654 6.27604 150.508 6.77708C150.158 8.66431 149.988 10.5806 150 12.5C149.988 14.4177 150.157 16.3333 150.508 18.2229C150.651 18.7219 150.929 19.1771 151.316 19.5448C151.702 19.9125 152.183 20.1781 152.713 20.3187C154.695 20.8333 162.494 20.8333 162.494 20.8333C165.765 20.8706 169.036 20.7071 172.288 20.3437C172.81 20.2087 173.29 19.9427 173.681 19.5708C174.067 19.2031 174.341 18.7458 174.478 18.2479C174.838 16.3614 175.013 14.4444 175 12.524C175.027 10.5954 174.853 8.66934 174.479 6.77708V6.77812ZM160.002 16.0667V8.93437L166.523 12.501L160.002 16.0667Z" fill="white"/>
<path fill-rule="evenodd" clip-rule="evenodd" d="M226.042 2.95621C226.042 2.44843 226.243 1.96145 226.602 1.6024C226.961 1.24334 227.448 1.04163 227.956 1.04163H247.042C247.293 1.04122 247.543 1.09044 247.775 1.18649C248.008 1.28254 248.219 1.42351 248.397 1.60135C248.575 1.77919 248.716 1.9904 248.813 2.22289C248.909 2.45537 248.958 2.70457 248.958 2.95621V22.0416C248.959 22.2933 248.909 22.5426 248.813 22.7752C248.717 23.0078 248.576 23.2191 248.398 23.3972C248.22 23.5752 248.009 23.7164 247.776 23.8127C247.544 23.9089 247.294 23.9584 247.043 23.9583H227.956C227.705 23.9583 227.456 23.9087 227.223 23.8125C226.991 23.7162 226.78 23.5751 226.602 23.3972C226.424 23.2193 226.283 23.0081 226.187 22.7757C226.091 22.5433 226.042 22.2942 226.042 22.0427V2.95621ZM235.113 9.77913H238.216V11.3375C238.664 10.4416 239.809 9.63538 241.531 9.63538C244.832 9.63538 245.615 11.4198 245.615 14.6937V20.7583H242.274V15.4395C242.274 13.575 241.826 12.5229 240.689 12.5229C239.11 12.5229 238.454 13.6573 238.454 15.4395V20.7583H235.113V9.77913ZM229.383 20.6156H232.725V9.63538H229.383V20.6145V20.6156ZM233.203 6.05413C233.209 6.34025 233.159 6.62474 233.053 6.89091C232.948 7.15709 232.791 7.39958 232.591 7.60416C232.391 7.80874 232.152 7.97129 231.888 8.08226C231.624 8.19323 231.341 8.2504 231.055 8.2504C230.769 8.2504 230.485 8.19323 230.221 8.08226C229.958 7.97129 229.719 7.80874 229.519 7.60416C229.318 7.39958 229.161 7.15709 229.056 6.89091C228.951 6.62474 228.9 6.34025 228.906 6.05413C228.919 5.49252 229.15 4.95808 229.552 4.56526C229.954 4.17244 230.493 3.95248 231.055 3.95248C231.616 3.95248 232.156 4.17244 232.557 4.56526C232.959 4.95808 233.191 5.49252 233.203 6.05413Z" fill="white"/>
<path fill-rule="evenodd" clip-rule="evenodd" d="M312.5 0C305.594 0 300 5.59375 300 12.5C300 18.0312 303.578 22.7031 308.547 24.3594C309.172 24.4688 309.406 24.0938 309.406 23.7656C309.406 23.4688 309.391 22.4844 309.391 21.4375C306.25 22.0156 305.438 20.6719 305.188 19.9688C305.047 19.6094 304.438 18.5 303.906 18.2031C303.469 17.9688 302.844 17.3906 303.891 17.375C304.875 17.3594 305.578 18.2812 305.812 18.6562C306.937 20.5469 308.734 20.0156 309.453 19.6875C309.562 18.875 309.891 18.3281 310.25 18.0156C307.469 17.7031 304.562 16.625 304.562 11.8437C304.562 10.4844 305.047 9.35938 305.844 8.48438C305.719 8.17188 305.281 6.89062 305.969 5.17188C305.969 5.17188 307.016 4.84375 309.406 6.45312C310.406 6.17188 311.469 6.03125 312.531 6.03125C313.594 6.03125 314.656 6.17188 315.656 6.45312C318.047 4.82812 319.094 5.17188 319.094 5.17188C319.781 6.89062 319.344 8.17188 319.219 8.48438C320.016 9.35938 320.5 10.4687 320.5 11.8437C320.5 16.6406 317.578 17.7031 314.797 18.0156C315.25 18.4062 315.641 19.1562 315.641 20.3281C315.641 22 315.625 23.3438 315.625 23.7656C315.625 24.0938 315.859 24.4844 316.484 24.3594C318.966 23.5216 321.122 21.9268 322.65 19.7993C324.177 17.6719 324.999 15.119 325 12.5C325 5.59375 319.406 0 312.5 0Z" fill="white"/>
</svg>
