<svg width="288" height="295" viewBox="0 0 288 295" fill="none" xmlns="http://www.w3.org/2000/svg">
<rect width="288" height="295" fill="#676CDB"/>
<path d="M40.38 217.043V219.783H34.66V222.743H38.94V225.403H34.66V231.083H31.24V217.043H40.38ZM45.5975 221.783C45.9975 221.17 46.4975 220.69 47.0975 220.343C47.6975 219.983 48.3642 219.803 49.0975 219.803V223.423H48.1575C47.3042 223.423 46.6642 223.61 46.2375 223.983C45.8108 224.343 45.5975 224.983 45.5975 225.903V231.083H42.1775V219.923H45.5975V221.783ZM55.8122 231.243C54.7189 231.243 53.7322 231.01 52.8522 230.543C51.9855 230.077 51.2989 229.41 50.7922 228.543C50.2989 227.677 50.0522 226.663 50.0522 225.503C50.0522 224.357 50.3055 223.35 50.8122 222.483C51.3189 221.603 52.0122 220.93 52.8922 220.463C53.7722 219.997 54.7589 219.763 55.8522 219.763C56.9455 219.763 57.9322 219.997 58.8122 220.463C59.6922 220.93 60.3855 221.603 60.8922 222.483C61.3989 223.35 61.6522 224.357 61.6522 225.503C61.6522 226.65 61.3922 227.663 60.8722 228.543C60.3655 229.41 59.6655 230.077 58.7722 230.543C57.8922 231.01 56.9055 231.243 55.8122 231.243ZM55.8122 228.283C56.4655 228.283 57.0189 228.043 57.4722 227.563C57.9389 227.083 58.1722 226.397 58.1722 225.503C58.1722 224.61 57.9455 223.923 57.4922 223.443C57.0522 222.963 56.5055 222.723 55.8522 222.723C55.1855 222.723 54.6322 222.963 54.1922 223.443C53.7522 223.91 53.5322 224.597 53.5322 225.503C53.5322 226.397 53.7455 227.083 54.1722 227.563C54.6122 228.043 55.1589 228.283 55.8122 228.283ZM70.2666 219.803C71.5732 219.803 72.6132 220.23 73.3866 221.083C74.1732 221.923 74.5666 223.083 74.5666 224.563V231.083H71.1666V225.023C71.1666 224.277 70.9732 223.697 70.5866 223.283C70.1999 222.87 69.6799 222.663 69.0266 222.663C68.3732 222.663 67.8532 222.87 67.4666 223.283C67.0799 223.697 66.8866 224.277 66.8866 225.023V231.083H63.4666V219.923H66.8866V221.403C67.2332 220.91 67.6999 220.523 68.2866 220.243C68.8732 219.95 69.5332 219.803 70.2666 219.803ZM83.1631 228.183V231.083H81.4231C80.1831 231.083 79.2165 230.783 78.5231 230.183C77.8298 229.57 77.4831 228.577 77.4831 227.203V222.763H76.1231V219.923H77.4831V217.203H80.9031V219.923H83.1431V222.763H80.9031V227.243C80.9031 227.577 80.9831 227.817 81.1431 227.963C81.3031 228.11 81.5698 228.183 81.9431 228.183H83.1631ZM92.7264 219.783V222.623H97.3064V225.263H92.7264V228.343H97.9064V231.083H89.3064V217.043H97.9064V219.783H92.7264ZM106.927 219.803C108.233 219.803 109.273 220.23 110.047 221.083C110.833 221.923 111.227 223.083 111.227 224.563V231.083H107.827V225.023C107.827 224.277 107.633 223.697 107.247 223.283C106.86 222.87 106.34 222.663 105.687 222.663C105.033 222.663 104.513 222.87 104.127 223.283C103.74 223.697 103.547 224.277 103.547 225.023V231.083H100.127V219.923H103.547V221.403C103.893 220.91 104.36 220.523 104.947 220.243C105.533 219.95 106.193 219.803 106.927 219.803ZM112.923 225.483C112.923 224.337 113.137 223.33 113.563 222.463C114.003 221.597 114.597 220.93 115.343 220.463C116.09 219.997 116.923 219.763 117.843 219.763C118.577 219.763 119.243 219.917 119.843 220.223C120.457 220.53 120.937 220.943 121.283 221.463V216.283H124.703V231.083H121.283V229.483C120.963 230.017 120.503 230.443 119.903 230.763C119.317 231.083 118.63 231.243 117.843 231.243C116.923 231.243 116.09 231.01 115.343 230.543C114.597 230.063 114.003 229.39 113.563 228.523C113.137 227.643 112.923 226.63 112.923 225.483ZM121.283 225.503C121.283 224.65 121.043 223.977 120.563 223.483C120.097 222.99 119.523 222.743 118.843 222.743C118.163 222.743 117.583 222.99 117.103 223.483C116.637 223.963 116.403 224.63 116.403 225.483C116.403 226.337 116.637 227.017 117.103 227.523C117.583 228.017 118.163 228.263 118.843 228.263C119.523 228.263 120.097 228.017 120.563 227.523C121.043 227.03 121.283 226.357 121.283 225.503ZM36.5 241.043C37.98 241.043 39.2733 241.337 40.38 241.923C41.4867 242.51 42.34 243.337 42.94 244.403C43.5533 245.457 43.86 246.677 43.86 248.063C43.86 249.437 43.5533 250.657 42.94 251.723C42.34 252.79 41.48 253.617 40.36 254.203C39.2533 254.79 37.9667 255.083 36.5 255.083H31.24V241.043H36.5ZM36.28 252.123C37.5733 252.123 38.58 251.77 39.3 251.063C40.02 250.357 40.38 249.357 40.38 248.063C40.38 246.77 40.02 245.763 39.3 245.043C38.58 244.323 37.5733 243.963 36.28 243.963H34.66V252.123H36.28ZM56.2912 249.323C56.2912 249.643 56.2713 249.977 56.2313 250.323H48.4913C48.5446 251.017 48.7646 251.55 49.1513 251.923C49.5513 252.283 50.0379 252.463 50.6113 252.463C51.4646 252.463 52.0579 252.103 52.3913 251.383H56.0313C55.8446 252.117 55.5046 252.777 55.0113 253.363C54.5313 253.95 53.9246 254.41 53.1913 254.743C52.4579 255.077 51.6379 255.243 50.7313 255.243C49.6379 255.243 48.6646 255.01 47.8113 254.543C46.9579 254.077 46.2913 253.41 45.8113 252.543C45.3313 251.677 45.0913 250.663 45.0913 249.503C45.0913 248.343 45.3246 247.33 45.7913 246.463C46.2713 245.597 46.9379 244.93 47.7913 244.463C48.6446 243.997 49.6246 243.763 50.7313 243.763C51.8113 243.763 52.7713 243.99 53.6113 244.443C54.4513 244.897 55.1046 245.543 55.5713 246.383C56.0513 247.223 56.2912 248.203 56.2912 249.323ZM52.7913 248.423C52.7913 247.837 52.5913 247.37 52.1913 247.023C51.7913 246.677 51.2913 246.503 50.6913 246.503C50.1179 246.503 49.6313 246.67 49.2313 247.003C48.8446 247.337 48.6046 247.81 48.5113 248.423H52.7913ZM63.1155 251.883L65.5355 243.923H69.1755L65.2155 255.083H60.9955L57.0355 243.923H60.6955L63.1155 251.883ZM81.135 249.323C81.135 249.643 81.115 249.977 81.075 250.323H73.335C73.3883 251.017 73.6083 251.55 73.995 251.923C74.395 252.283 74.8817 252.463 75.455 252.463C76.3083 252.463 76.9017 252.103 77.235 251.383H80.875C80.6883 252.117 80.3483 252.777 79.855 253.363C79.375 253.95 78.7683 254.41 78.035 254.743C77.3017 255.077 76.4817 255.243 75.575 255.243C74.4817 255.243 73.5083 255.01 72.655 254.543C71.8017 254.077 71.135 253.41 70.655 252.543C70.175 251.677 69.935 250.663 69.935 249.503C69.935 248.343 70.1683 247.33 70.635 246.463C71.115 245.597 71.7817 244.93 72.635 244.463C73.4883 243.997 74.4683 243.763 75.575 243.763C76.655 243.763 77.615 243.99 78.455 244.443C79.295 244.897 79.9483 245.543 80.415 246.383C80.895 247.223 81.135 248.203 81.135 249.323ZM77.635 248.423C77.635 247.837 77.435 247.37 77.035 247.023C76.635 246.677 76.135 246.503 75.535 246.503C74.9617 246.503 74.475 246.67 74.075 247.003C73.6883 247.337 73.4483 247.81 73.355 248.423H77.635ZM86.3592 240.283V255.083H82.9392V240.283H86.3592ZM93.9177 255.243C92.8243 255.243 91.8377 255.01 90.9577 254.543C90.091 254.077 89.4043 253.41 88.8977 252.543C88.4043 251.677 88.1577 250.663 88.1577 249.503C88.1577 248.357 88.411 247.35 88.9177 246.483C89.4243 245.603 90.1177 244.93 90.9977 244.463C91.8777 243.997 92.8643 243.763 93.9577 243.763C95.051 243.763 96.0377 243.997 96.9177 244.463C97.7977 244.93 98.491 245.603 98.9977 246.483C99.5043 247.35 99.7577 248.357 99.7577 249.503C99.7577 250.65 99.4977 251.663 98.9777 252.543C98.471 253.41 97.771 254.077 96.8777 254.543C95.9977 255.01 95.011 255.243 93.9177 255.243ZM93.9177 252.283C94.571 252.283 95.1243 252.043 95.5777 251.563C96.0443 251.083 96.2777 250.397 96.2777 249.503C96.2777 248.61 96.051 247.923 95.5977 247.443C95.1577 246.963 94.611 246.723 93.9577 246.723C93.291 246.723 92.7377 246.963 92.2977 247.443C91.8577 247.91 91.6377 248.597 91.6377 249.503C91.6377 250.397 91.851 251.083 92.2777 251.563C92.7177 252.043 93.2643 252.283 93.9177 252.283ZM104.992 245.503C105.325 244.983 105.785 244.563 106.372 244.243C106.959 243.923 107.645 243.763 108.432 243.763C109.352 243.763 110.185 243.997 110.932 244.463C111.679 244.93 112.265 245.597 112.692 246.463C113.132 247.33 113.352 248.337 113.352 249.483C113.352 250.63 113.132 251.643 112.692 252.523C112.265 253.39 111.679 254.063 110.932 254.543C110.185 255.01 109.352 255.243 108.432 255.243C107.659 255.243 106.972 255.083 106.372 254.763C105.785 254.443 105.325 254.03 104.992 253.523V260.403H101.572V243.923H104.992V245.503ZM109.872 249.483C109.872 248.63 109.632 247.963 109.152 247.483C108.685 246.99 108.105 246.743 107.412 246.743C106.732 246.743 106.152 246.99 105.672 247.483C105.205 247.977 104.972 248.65 104.972 249.503C104.972 250.357 105.205 251.03 105.672 251.523C106.152 252.017 106.732 252.263 107.412 252.263C108.092 252.263 108.672 252.017 109.152 251.523C109.632 251.017 109.872 250.337 109.872 249.483ZM125.666 249.323C125.666 249.643 125.646 249.977 125.606 250.323H117.866C117.92 251.017 118.14 251.55 118.526 251.923C118.926 252.283 119.413 252.463 119.986 252.463C120.84 252.463 121.433 252.103 121.766 251.383H125.406C125.22 252.117 124.88 252.777 124.386 253.363C123.906 253.95 123.3 254.41 122.566 254.743C121.833 255.077 121.013 255.243 120.106 255.243C119.013 255.243 118.04 255.01 117.186 254.543C116.333 254.077 115.666 253.41 115.186 252.543C114.706 251.677 114.466 250.663 114.466 249.503C114.466 248.343 114.7 247.33 115.166 246.463C115.646 245.597 116.313 244.93 117.166 244.463C118.02 243.997 119 243.763 120.106 243.763C121.186 243.763 122.146 243.99 122.986 244.443C123.826 244.897 124.48 245.543 124.946 246.383C125.426 247.223 125.666 248.203 125.666 249.323ZM122.166 248.423C122.166 247.837 121.966 247.37 121.566 247.023C121.166 246.677 120.666 246.503 120.066 246.503C119.493 246.503 119.006 246.67 118.606 247.003C118.22 247.337 117.98 247.81 117.886 248.423H122.166ZM130.89 245.783C131.29 245.17 131.79 244.69 132.39 244.343C132.99 243.983 133.657 243.803 134.39 243.803V247.423H133.45C132.597 247.423 131.957 247.61 131.53 247.983C131.104 248.343 130.89 248.983 130.89 249.903V255.083H127.47V243.923H130.89V245.783Z" fill="white"/>
<path fill-rule="evenodd" clip-rule="evenodd" d="M34.5 180.125C34.5 179.343 34.8161 178.592 35.3787 178.039C35.9413 177.486 36.7044 177.175 37.5 177.175H52.5C53.2956 177.175 54.0587 177.486 54.6213 178.039C55.1839 178.592 55.5 179.343 55.5 180.125V191.925C55.5 192.707 55.1839 193.458 54.6213 194.011C54.0587 194.564 53.2956 194.875 52.5 194.875H49.17L49.3545 195.596L50.5605 196.782C50.7702 196.989 50.913 197.251 50.9709 197.537C51.0287 197.823 50.999 198.12 50.8855 198.389C50.772 198.659 50.5798 198.889 50.3332 199.051C50.0866 199.213 49.7966 199.3 49.5 199.3H40.5C40.2034 199.3 39.9134 199.213 39.6668 199.051C39.4202 198.889 39.228 198.659 39.1145 198.389C39.001 198.12 38.9713 197.823 39.0291 197.537C39.087 197.251 39.2298 196.989 39.4395 196.782L40.6455 195.596L40.83 194.875H37.5C36.7044 194.875 35.9413 194.564 35.3787 194.011C34.8161 193.458 34.5 192.707 34.5 191.925V180.125ZM43.1565 190.45H37.5V180.125H52.5V190.45H43.1565Z" fill="white"/>
</svg>
