<svg width="25" height="25" viewBox="0 0 25 25" fill="none" xmlns="http://www.w3.org/2000/svg">
<path fill-rule="evenodd" clip-rule="evenodd" d="M1.04167 2.95621C1.04167 2.44843 1.24339 1.96145 1.60244 1.6024C1.96149 1.24334 2.44848 1.04163 2.95626 1.04163H22.0417C22.2933 1.04122 22.5426 1.09044 22.7752 1.18649C23.0077 1.28254 23.2191 1.42351 23.3971 1.60135C23.5752 1.77919 23.7164 1.9904 23.8127 2.22289C23.909 2.45537 23.9585 2.70457 23.9583 2.95621V22.0416C23.9586 22.2933 23.9093 22.5426 23.8131 22.7752C23.7169 23.0078 23.5759 23.2191 23.3979 23.3972C23.22 23.5752 23.0087 23.7164 22.7762 23.8127C22.5437 23.9089 22.2944 23.9584 22.0427 23.9583H2.95626C2.70474 23.9583 2.45569 23.9087 2.22334 23.8125C1.99098 23.7162 1.77987 23.5751 1.60207 23.3972C1.42427 23.2193 1.28327 23.0081 1.18711 22.7757C1.09096 22.5433 1.04154 22.2942 1.04167 22.0427V2.95621ZM10.1125 9.77913H13.2156V11.3375C13.6635 10.4416 14.8094 9.63538 16.5313 9.63538C19.8323 9.63538 20.6146 11.4198 20.6146 14.6937V20.7583H17.274V15.4395C17.274 13.575 16.826 12.5229 15.6885 12.5229C14.1104 12.5229 13.4542 13.6573 13.4542 15.4395V20.7583H10.1125V9.77913ZM4.38334 20.6156H7.72501V9.63538H4.38334V20.6145V20.6156ZM8.20313 6.05413C8.20943 6.34025 8.15852 6.62474 8.05338 6.89091C7.94824 7.15709 7.791 7.39958 7.59087 7.60416C7.39075 7.80874 7.15178 7.97129 6.88798 8.08226C6.62418 8.19323 6.34088 8.2504 6.05469 8.2504C5.76851 8.2504 5.4852 8.19323 5.22141 8.08226C4.95761 7.97129 4.71864 7.80874 4.51851 7.60416C4.31839 7.39958 4.16114 7.15709 4.05601 6.89091C3.95087 6.62474 3.89996 6.34025 3.90626 6.05413C3.91862 5.49252 4.15041 4.95808 4.55197 4.56526C4.95353 4.17244 5.49295 3.95248 6.05469 3.95248C6.61644 3.95248 7.15585 4.17244 7.55742 4.56526C7.95898 4.95808 8.19076 5.49252 8.20313 6.05413Z" fill="white"/>
</svg>
