<svg width="1441" height="200" viewBox="0 0 1441 200" fill="none" xmlns="http://www.w3.org/2000/svg">
<rect width="1441" height="200" fill="black"/>
<path d="M193.883 86.1167C197.493 86.0084 200.918 84.4984 203.433 81.907C205.948 79.3156 207.354 75.8465 207.354 72.2354C207.354 68.6244 205.948 65.1553 203.433 62.5639C200.918 59.9725 197.493 58.4625 193.883 58.3542H166.117C162.507 58.4625 159.082 59.9725 156.567 62.5639C154.052 65.1553 152.646 68.6244 152.646 72.2354C152.646 75.8465 154.052 79.3156 156.567 81.907C159.082 84.4984 162.507 86.0084 166.117 86.1167C162.476 86.1798 159.005 87.6704 156.453 90.2676C153.9 92.8647 152.47 96.3606 152.47 100.002C152.47 103.644 153.9 107.139 156.453 109.737C159.005 112.334 162.476 113.824 166.117 113.888C162.493 113.976 159.049 115.478 156.517 118.072C153.986 120.666 152.569 124.147 152.569 127.771C152.569 131.395 153.986 134.876 156.517 137.47C159.049 140.064 162.493 141.565 166.117 141.654C169.799 141.652 173.329 140.188 175.933 137.584C178.536 134.98 179.999 131.449 180 127.767V86.1167H193.883Z" fill="white" fill-opacity="0.5"/>
<path d="M193.883 113.883C201.551 113.883 207.767 107.668 207.767 100C207.767 92.3325 201.551 86.1167 193.883 86.1167C186.216 86.1167 180 92.3325 180 100C180 107.668 186.216 113.883 193.883 113.883Z" fill="white" fill-opacity="0.5"/>
<path d="M414.18 59.375L420.625 132.285L450 140.625L479.258 132.285L485.83 59.375H414.18ZM472.285 76.6699L471.817 81.2793L471.651 83.1836H437.334L438.135 92.3828H470.86L470.537 94.7559L468.467 118.408L468.301 119.99L450.039 125.029V125.059H449.922L449.893 125.068V125.059H449.883L431.465 119.98L430.352 105.859H439.248L439.883 113.008L449.883 115.713H449.922L459.883 113.018L460.996 101.436H449.893V101.426H429.883L427.656 76.6699L427.49 74.2969H472.442L472.285 76.6699Z" fill="white" fill-opacity="0.5"/>
<path d="M687.467 63.0958H752.529L746.612 129.904L719.929 137.454L693.392 129.9L687.467 63.0958ZM740.417 76.7666L699.583 76.7583L700.242 84.8791L731.612 84.8874L730.825 93.3041H710.25L710.996 101.275H730.15L729.017 112.192L720 114.683L710.846 112.171L710.258 105.633H702.175L703.075 117.579L720 122.85L736.646 118.112L740.417 76.7666Z" fill="white" fill-opacity="0.5"/>
<path d="M987.162 119.206C987.069 119.375 987.116 119.3 987.162 119.206V119.206ZM1026.09 105.613C1022.94 105.613 1019.84 106.331 1017.02 107.722C1016.1 105.863 1015.15 104.238 1014.99 103.019C1014.81 101.597 1014.6 100.753 1014.82 99.0656C1015.04 97.3781 1016.02 94.9875 1016.01 94.8156C1015.99 94.6438 1015.79 93.7844 1013.77 93.7688C1011.76 93.7531 1010.02 94.1594 1009.82 94.6906C1009.47 95.6613 1009.19 96.6594 1008.99 97.675C1008.63 99.5031 1004.97 106.034 1002.89 109.441C1002.2 108.113 1001.62 106.941 1001.5 106.003C1001.31 104.581 1001.11 103.738 1001.32 102.05C1001.54 100.363 1002.53 97.9719 1002.51 97.8C1002.5 97.6281 1002.29 96.7688 1000.28 96.7531C998.269 96.7375 996.531 97.1438 996.328 97.675C996.125 98.2063 995.906 99.4563 995.5 100.659C995.094 101.863 990.203 112.738 988.925 115.566C988.269 117.003 987.706 118.159 987.3 118.941C987.237 119.066 987.191 119.144 987.159 119.206C987.206 119.128 987.237 119.05 987.237 119.081C986.894 119.753 986.691 120.128 986.691 120.128V120.144C986.425 120.644 986.128 121.097 985.987 121.097C985.894 121.097 985.691 119.784 986.034 117.988C986.769 114.206 988.503 108.331 988.487 108.128C988.472 108.019 988.816 107.003 987.347 106.456C985.925 105.941 985.409 106.8 985.284 106.8C985.159 106.8 985.066 107.113 985.066 107.113C985.066 107.113 986.644 100.488 982.034 100.488C979.159 100.488 975.159 103.644 973.194 106.503C971.959 107.175 969.287 108.628 966.475 110.175L963.241 111.956C963.162 111.878 963.1 111.8 963.022 111.722C957.428 105.753 947.103 101.534 947.541 93.5188C947.697 90.5969 948.712 82.925 967.397 73.6125C982.709 65.9875 994.95 68.0813 997.059 72.7375C1000.09 79.3781 990.512 91.7375 974.612 93.5188C968.55 94.1906 965.366 91.8469 964.569 90.9719C963.741 90.05 963.616 90.0031 963.303 90.175C962.787 90.4563 963.116 91.2688 963.303 91.7531C963.772 92.9875 965.725 95.175 969.053 96.2688C971.975 97.2219 979.081 97.7531 987.672 94.425C997.325 90.7063 1004.84 80.3469 1002.63 71.675C1000.39 62.8625 985.778 59.9719 971.962 64.8781C963.728 67.8 954.825 72.3938 948.422 78.3781C940.812 85.5031 939.597 91.7063 940.097 94.3C941.878 103.503 954.562 109.503 959.637 113.941L958.934 114.331C956.387 115.597 946.719 120.659 944.297 126.003C941.562 132.066 944.75 136.409 946.841 137.003C953.372 138.816 960.056 135.55 963.65 130.191C967.244 124.831 966.806 117.831 965.15 114.644C965.134 114.597 965.103 114.566 965.087 114.519C966.962 113.408 968.853 112.325 970.759 111.269C970.134 112.956 969.681 114.988 969.447 117.925C969.166 121.363 970.587 125.816 972.431 127.566C973.244 128.331 974.225 128.347 974.837 128.347C976.994 128.347 977.962 126.566 979.041 124.441C980.369 121.847 981.541 118.831 981.541 118.831C981.541 118.831 980.072 126.988 984.087 126.988C985.556 126.988 987.025 125.097 987.681 124.128V124.144C987.681 124.144 987.712 124.081 987.791 123.956C987.947 123.722 988.025 123.581 988.025 123.581V123.534C988.619 122.519 989.916 120.191 991.869 116.347C994.4 111.378 996.819 105.175 996.819 105.175C997.053 106.538 997.378 107.884 997.787 109.206C998.225 110.691 999.147 112.316 999.881 113.894C999.287 114.706 998.928 115.175 998.928 115.175C998.928 115.188 998.934 115.197 998.944 115.206C998.475 115.831 997.944 116.503 997.397 117.159C995.4 119.534 993.022 122.253 992.709 123.034C992.334 123.956 992.428 124.644 993.147 125.175C993.678 125.581 994.616 125.644 995.6 125.566C997.397 125.441 998.662 125.003 999.272 124.722C1000.4 124.319 1001.46 123.762 1002.43 123.066C1004.38 121.628 1005.57 119.566 1005.46 116.847C1005.4 115.347 1004.91 113.847 1004.32 112.441C1004.49 112.191 1004.68 111.925 1004.85 111.659C1006.88 108.625 1008.72 105.461 1010.33 102.188C1010.57 103.55 1010.89 104.897 1011.3 106.219C1011.68 107.484 1012.41 108.875 1013.08 110.234C1010.18 112.594 1008.38 115.328 1007.76 117.125C1006.6 120.453 1007.51 121.953 1009.21 122.297C1009.98 122.453 1011.07 122.094 1011.88 121.75C1013.09 121.347 1014.23 120.763 1015.26 120.016C1017.21 118.578 1019.1 116.563 1018.97 113.828C1018.92 112.594 1018.58 111.359 1018.13 110.172C1020.58 109.141 1023.77 108.578 1027.83 109.047C1036.53 110.063 1038.23 115.5 1037.91 117.766C1037.58 120.031 1035.75 121.297 1035.14 121.672C1034.53 122.047 1034.34 122.188 1034.39 122.469C1034.47 122.875 1034.75 122.859 1035.27 122.766C1035.98 122.641 1039.83 120.922 1040 116.719C1040.25 111.406 1035.14 105.563 1026.09 105.609L1026.09 105.613ZM959.028 128.222C956.153 131.363 952.125 132.55 950.391 131.55C948.531 130.469 949.266 125.847 952.809 122.5C954.966 120.469 957.747 118.594 959.591 117.438C960.012 117.188 960.622 116.813 961.372 116.359C961.433 116.32 961.495 116.284 961.559 116.25C961.7 116.156 961.856 116.078 962.012 115.984C963.306 120.734 962.059 124.922 959.028 128.219V128.222ZM980.022 113.941C979.022 116.394 976.916 122.644 975.631 122.316C974.537 122.034 973.866 117.269 975.412 112.581C976.194 110.222 977.85 107.409 978.834 106.316C980.412 104.55 982.147 103.988 982.553 104.691C983.1 105.613 980.647 112.409 980.022 113.941ZM997.366 122.222C996.944 122.441 996.553 122.581 996.366 122.472C996.225 122.394 996.537 122.097 996.537 122.097C996.537 122.097 998.709 119.769 999.569 118.706C1000.07 118.081 1000.65 117.347 1001.27 116.534C1001.27 116.613 1001.29 116.691 1001.29 116.784C1001.27 119.581 998.581 121.472 997.362 122.222H997.366ZM1010.74 119.175C1010.43 118.956 1010.47 118.222 1011.52 115.941C1011.93 115.05 1012.87 113.55 1014.49 112.113C1014.67 112.656 1014.77 113.225 1014.79 113.8C1014.77 117.316 1012.26 118.628 1010.74 119.175Z" fill="white" fill-opacity="0.5"/>
<path d="M1310 98.7042C1310 92.0792 1301.7 85.8 1288.98 81.9084C1291.92 68.9459 1290.62 58.6292 1284.87 55.325C1283.47 54.5447 1281.9 54.1519 1280.3 54.1875V58.7292C1281.24 58.7292 1281.99 58.9167 1282.62 59.2625C1285.4 60.8542 1286.6 66.9042 1285.66 74.6917C1285.44 76.6084 1285.07 78.625 1284.62 80.6834C1280.36 79.6568 1276.04 78.9149 1271.68 78.4625C1269.08 74.8804 1266.25 71.4756 1263.2 68.2709C1269.85 62.0959 1276.08 58.7125 1280.32 58.7125V54.1667C1274.72 54.1667 1267.38 58.1625 1259.96 65.0917C1252.54 58.2084 1245.2 54.25 1239.6 54.25V58.7917C1243.82 58.7917 1250.08 62.1584 1256.72 68.2917C1253.87 71.2917 1251.01 74.6917 1248.3 78.4625C1243.93 78.9099 1239.6 79.6589 1235.34 80.7042C1234.87 78.6667 1234.52 76.6917 1234.27 74.7959C1233.32 67.0042 1234.5 60.9542 1237.25 59.3459C1237.86 58.9792 1238.66 58.8125 1239.6 58.8125V54.2709C1237.89 54.2709 1236.33 54.6375 1234.99 55.4084C1229.26 58.7125 1227.98 69.0042 1230.93 81.9292C1218.25 85.8459 1210 92.1 1210 98.7042C1210 105.329 1218.3 111.608 1231.02 115.496C1228.08 128.463 1229.38 138.779 1235.13 142.079C1236.46 142.854 1238.01 143.221 1239.72 143.221C1245.32 143.221 1252.66 139.225 1260.08 132.296C1267.5 139.183 1274.84 143.138 1280.45 143.138C1282.05 143.172 1283.64 142.778 1285.05 141.996C1290.78 138.696 1292.06 128.404 1289.11 115.479C1301.75 111.588 1310 105.308 1310 98.7042ZM1283.46 85.1084C1282.67 87.8328 1281.75 90.519 1280.71 93.1584C1279 89.8448 1277.13 86.6199 1275.1 83.4959C1278 83.925 1280.79 84.4542 1283.46 85.1084H1283.46ZM1274.12 106.817C1272.54 109.567 1270.9 112.179 1269.21 114.604C1263.1 115.143 1256.95 115.15 1250.83 114.625C1247.32 109.613 1244.25 104.307 1241.66 98.7667C1244.25 93.213 1247.3 87.8884 1250.79 82.85C1256.91 82.3099 1263.06 82.3015 1269.17 82.825C1270.86 85.25 1272.52 87.8417 1274.1 90.575C1275.65 93.2417 1277.06 95.95 1278.35 98.6834C1277.05 101.45 1275.64 104.163 1274.12 106.817ZM1280.71 104.167C1281.81 106.896 1282.75 109.629 1283.52 112.279C1280.85 112.933 1278.04 113.483 1275.12 113.908C1277.15 110.756 1279.01 107.505 1280.71 104.167ZM1260.04 125.917C1258.15 123.958 1256.25 121.779 1254.37 119.392C1256.21 119.475 1258.08 119.538 1259.98 119.538C1261.9 119.538 1263.79 119.496 1265.65 119.392C1263.81 121.779 1261.92 123.958 1260.04 125.917ZM1244.88 113.908C1242.07 113.501 1239.28 112.965 1236.52 112.3C1237.27 109.671 1238.21 106.958 1239.27 104.25C1240.1 105.875 1240.98 107.508 1241.94 109.142C1242.9 110.771 1243.88 112.363 1244.88 113.908ZM1259.94 71.4917C1261.83 73.45 1263.73 75.6292 1265.6 78.0167C1263.77 77.9334 1261.9 77.8709 1260 77.8709C1258.08 77.8709 1256.19 77.9125 1254.33 78.0167C1256.17 75.6292 1258.06 73.45 1259.94 71.4917ZM1244.85 83.5C1242.83 86.6456 1240.97 89.8899 1239.27 93.2209C1238.2 90.5644 1237.26 87.857 1236.46 85.1084C1239.12 84.475 1241.94 83.925 1244.85 83.5ZM1226.41 109.017C1219.19 105.942 1214.52 101.904 1214.52 98.7042C1214.52 95.5042 1219.19 91.4459 1226.41 88.3917C1228.16 87.6375 1230.08 86.9625 1232.05 86.3334C1233.22 90.325 1234.75 94.4834 1236.64 98.7459C1234.85 102.755 1233.34 106.881 1232.12 111.096C1230.18 110.497 1228.28 109.803 1226.41 109.017ZM1237.38 138.142C1234.6 136.558 1233.4 130.5 1234.34 122.717C1234.56 120.8 1234.93 118.779 1235.38 116.721C1239.37 117.7 1243.73 118.454 1248.32 118.946C1250.92 122.528 1253.75 125.933 1256.8 129.138C1250.15 135.313 1243.92 138.696 1239.67 138.696C1238.87 138.705 1238.08 138.516 1237.38 138.146V138.142ZM1285.72 122.613C1286.68 130.4 1285.5 136.454 1282.75 138.063C1282.14 138.429 1281.34 138.592 1280.4 138.592C1276.18 138.592 1269.92 135.229 1263.28 129.092C1266.13 126.1 1268.99 122.696 1271.7 118.925C1276.07 118.478 1280.4 117.729 1284.66 116.683C1285.13 118.742 1285.5 120.717 1285.72 122.613ZM1293.57 109.017C1291.82 109.771 1289.9 110.446 1287.92 111.075C1286.68 106.839 1285.15 102.692 1283.34 98.6625C1285.22 94.425 1286.72 90.2875 1287.86 86.3125C1289.88 86.9417 1291.8 87.6375 1293.59 88.3917C1300.81 91.4667 1305.47 95.5042 1305.47 98.7042C1305.45 101.904 1300.79 105.963 1293.57 109.017Z" fill="white" fill-opacity="0.5"/>
<path d="M1259.98 108.021C1262.45 108.021 1264.82 107.039 1266.57 105.292C1268.31 103.545 1269.3 101.175 1269.3 98.7042C1269.3 96.2332 1268.31 93.8635 1266.57 92.1163C1264.82 90.3691 1262.45 89.3875 1259.98 89.3875C1257.51 89.3875 1255.14 90.3691 1253.39 92.1163C1251.64 93.8635 1250.66 96.2332 1250.66 98.7042C1250.66 101.175 1251.64 103.545 1253.39 105.292C1255.14 107.039 1257.51 108.021 1259.98 108.021Z" fill="white" fill-opacity="0.5"/>
</svg>
