<svg width="93" height="65" viewBox="0 0 93 65" fill="none" xmlns="http://www.w3.org/2000/svg">
<path d="M16.99 39.04H23.71V43H11.86V21.94H16.99V39.04ZM33.7769 43.24C32.1369 43.24 30.6569 42.89 29.3369 42.19C28.0369 41.49 27.0069 40.49 26.2469 39.19C25.5069 37.89 25.1369 36.37 25.1369 34.63C25.1369 32.91 25.5169 31.4 26.2769 30.1C27.0369 28.78 28.0769 27.77 29.3969 27.07C30.7169 26.37 32.1969 26.02 33.8369 26.02C35.4769 26.02 36.9569 26.37 38.2769 27.07C39.5969 27.77 40.6369 28.78 41.3969 30.1C42.1569 31.4 42.5369 32.91 42.5369 34.63C42.5369 36.35 42.1469 37.87 41.3669 39.19C40.6069 40.49 39.5569 41.49 38.2169 42.19C36.8969 42.89 35.4169 43.24 33.7769 43.24ZM33.7769 38.8C34.7569 38.8 35.5869 38.44 36.2669 37.72C36.9669 37 37.3169 35.97 37.3169 34.63C37.3169 33.29 36.9769 32.26 36.2969 31.54C35.6369 30.82 34.8169 30.46 33.8369 30.46C32.8369 30.46 32.0069 30.82 31.3469 31.54C30.6869 32.24 30.3569 33.27 30.3569 34.63C30.3569 35.97 30.6769 37 31.3169 37.72C31.9769 38.44 32.7969 38.8 33.7769 38.8ZM51.6184 26.02C52.7984 26.02 53.8284 26.26 54.7084 26.74C55.6084 27.22 56.2984 27.85 56.7784 28.63V26.26H61.9084V42.97C61.9084 44.51 61.5984 45.9 60.9784 47.14C60.3784 48.4 59.4484 49.4 58.1884 50.14C56.9484 50.88 55.3984 51.25 53.5384 51.25C51.0584 51.25 49.0484 50.66 47.5084 49.48C45.9684 48.32 45.0884 46.74 44.8684 44.74H49.9384C50.0984 45.38 50.4784 45.88 51.0784 46.24C51.6784 46.62 52.4184 46.81 53.2984 46.81C54.3584 46.81 55.1984 46.5 55.8184 45.88C56.4584 45.28 56.7784 44.31 56.7784 42.97V40.6C56.2784 41.38 55.5884 42.02 54.7084 42.52C53.8284 43 52.7984 43.24 51.6184 43.24C50.2384 43.24 48.9884 42.89 47.8684 42.19C46.7484 41.47 45.8584 40.46 45.1984 39.16C44.5584 37.84 44.2384 36.32 44.2384 34.6C44.2384 32.88 44.5584 31.37 45.1984 30.07C45.8584 28.77 46.7484 27.77 47.8684 27.07C48.9884 26.37 50.2384 26.02 51.6184 26.02ZM56.7784 34.63C56.7784 33.35 56.4184 32.34 55.6984 31.6C54.9984 30.86 54.1384 30.49 53.1184 30.49C52.0984 30.49 51.2284 30.86 50.5084 31.6C49.8084 32.32 49.4584 33.32 49.4584 34.6C49.4584 35.88 49.8084 36.9 50.5084 37.66C51.2284 38.4 52.0984 38.77 53.1184 38.77C54.1384 38.77 54.9984 38.4 55.6984 37.66C56.4184 36.92 56.7784 35.91 56.7784 34.63ZM73.2398 43.24C71.5998 43.24 70.1198 42.89 68.7998 42.19C67.4998 41.49 66.4698 40.49 65.7098 39.19C64.9698 37.89 64.5998 36.37 64.5998 34.63C64.5998 32.91 64.9798 31.4 65.7398 30.1C66.4998 28.78 67.5398 27.77 68.8598 27.07C70.1798 26.37 71.6598 26.02 73.2998 26.02C74.9398 26.02 76.4198 26.37 77.7398 27.07C79.0598 27.77 80.0998 28.78 80.8598 30.1C81.6198 31.4 81.9998 32.91 81.9998 34.63C81.9998 36.35 81.6098 37.87 80.8298 39.19C80.0698 40.49 79.0198 41.49 77.6798 42.19C76.3598 42.89 74.8798 43.24 73.2398 43.24ZM73.2398 38.8C74.2198 38.8 75.0498 38.44 75.7298 37.72C76.4298 37 76.7798 35.97 76.7798 34.63C76.7798 33.29 76.4398 32.26 75.7598 31.54C75.0998 30.82 74.2798 30.46 73.2998 30.46C72.2998 30.46 71.4698 30.82 70.8098 31.54C70.1498 32.24 69.8198 33.27 69.8198 34.63C69.8198 35.97 70.1398 37 70.7798 37.72C71.4398 38.44 72.2598 38.8 73.2398 38.8Z" fill="white"/>
</svg>
