<svg width="100" height="100" viewBox="0 0 100 100" fill="none" xmlns="http://www.w3.org/2000/svg">
<path d="M47.1624 69.2063C47.0687 69.375 47.1155 69.3 47.1624 69.2063V69.2063ZM86.0874 55.6125C82.9437 55.6125 79.8437 56.3313 77.0249 57.7219C76.103 55.8625 75.1499 54.2375 74.9937 53.0188C74.8062 51.5969 74.603 50.7531 74.8218 49.0656C75.0405 47.3781 76.0249 44.9875 76.0093 44.8156C75.9937 44.6438 75.7905 43.7844 73.7749 43.7688C71.7593 43.7531 70.0249 44.1594 69.8218 44.6906C69.4651 45.6613 69.1882 46.6594 68.9937 47.675C68.6343 49.5031 64.9655 56.0344 62.8874 59.4406C62.1999 58.1125 61.6218 56.9406 61.4968 56.0031C61.3093 54.5813 61.1062 53.7375 61.3249 52.05C61.5437 50.3625 62.528 47.9719 62.5124 47.8C62.4968 47.6281 62.2937 46.7688 60.2812 46.7531C58.2687 46.7375 56.5312 47.1438 56.328 47.675C56.1249 48.2063 55.9062 49.4563 55.4999 50.6594C55.0937 51.8625 50.203 62.7375 48.9249 65.5656C48.2687 67.0031 47.7062 68.1594 47.2999 68.9406C47.2374 69.0656 47.1905 69.1438 47.1593 69.2063C47.2062 69.1281 47.2374 69.05 47.2374 69.0813C46.8937 69.7531 46.6905 70.1281 46.6905 70.1281V70.1438C46.4249 70.6438 46.128 71.0969 45.9874 71.0969C45.8937 71.0969 45.6905 69.7844 46.0343 67.9875C46.7687 64.2063 48.503 58.3313 48.4874 58.1281C48.4718 58.0188 48.8155 57.0031 47.3468 56.4563C45.9249 55.9406 45.4093 56.8 45.2843 56.8C45.1593 56.8 45.0655 57.1125 45.0655 57.1125C45.0655 57.1125 46.6437 50.4875 42.0343 50.4875C39.1593 50.4875 35.1593 53.6438 33.1937 56.5031C31.9593 57.175 29.2874 58.6281 26.4749 60.175L23.2405 61.9563C23.1624 61.8781 23.0999 61.8 23.0218 61.7219C17.428 55.7531 7.10304 51.5344 7.54054 43.5188C7.69679 40.5969 8.71241 32.925 27.3968 23.6125C42.7093 15.9875 54.9499 18.0813 57.0593 22.7375C60.0905 29.3781 50.5124 41.7375 34.6124 43.5188C28.5499 44.1906 25.3655 41.8469 24.5687 40.9719C23.7405 40.05 23.6155 40.0031 23.303 40.175C22.7874 40.4563 23.1155 41.2688 23.303 41.7531C23.7718 42.9875 25.7249 45.175 29.053 46.2688C31.9749 47.2219 39.0812 47.7531 47.6718 44.425C57.3249 40.7063 64.8405 30.3469 62.6343 21.675C60.3905 12.8625 45.778 9.97188 31.9624 14.8781C23.728 17.8 14.8249 22.3938 8.42179 28.3781C0.81241 35.5031 -0.403215 41.7063 0.0967848 44.3C1.87803 53.5031 14.5624 59.5031 19.6374 63.9406L18.9343 64.3313C16.3874 65.5969 6.71866 70.6594 4.29679 76.0031C1.56241 82.0656 4.74991 86.4094 6.84053 87.0031C13.3718 88.8156 20.0562 85.55 23.6499 80.1906C27.2437 74.8313 26.8062 67.8313 25.1499 64.6438C25.1343 64.5969 25.103 64.5656 25.0874 64.5188C26.9623 63.4082 28.8531 62.3248 30.7593 61.2688C30.1343 62.9563 29.6812 64.9875 29.4468 67.925C29.1655 71.3625 30.5874 75.8156 32.4312 77.5656C33.2437 78.3313 34.2249 78.3469 34.8374 78.3469C36.9937 78.3469 37.9624 76.5656 39.0405 74.4406C40.3687 71.8469 41.5405 68.8313 41.5405 68.8313C41.5405 68.8313 40.0718 76.9875 44.0874 76.9875C45.5562 76.9875 47.0249 75.0969 47.6812 74.1281V74.1438C47.6812 74.1438 47.7124 74.0813 47.7905 73.9563C47.9468 73.7219 48.0249 73.5813 48.0249 73.5813V73.5344C48.6187 72.5188 49.9155 70.1906 51.8687 66.3469C54.3999 61.3781 56.8187 55.175 56.8187 55.175C57.053 56.5375 57.378 57.8844 57.7874 59.2063C58.2249 60.6906 59.1468 62.3156 59.8812 63.8938C59.2874 64.7063 58.928 65.175 58.928 65.175C58.928 65.1875 58.9343 65.1969 58.9437 65.2063C58.4749 65.8313 57.9437 66.5031 57.3968 67.1594C55.3999 69.5344 53.0218 72.2531 52.7093 73.0344C52.3343 73.9563 52.428 74.6438 53.1468 75.175C53.678 75.5813 54.6155 75.6438 55.5999 75.5656C57.3968 75.4406 58.6624 75.0031 59.2718 74.7219C60.3957 74.3192 61.458 73.7617 62.428 73.0656C64.3812 71.6281 65.5687 69.5656 65.4593 66.8469C65.3968 65.3469 64.9124 63.8469 64.3187 62.4406C64.4905 62.1906 64.678 61.925 64.8499 61.6594C66.8833 58.6255 68.7153 55.4614 70.3343 52.1875C70.5687 53.55 70.8905 54.8969 71.303 56.2188C71.678 57.4844 72.4124 58.875 73.0843 60.2344C70.178 62.5938 68.3812 65.3281 67.7593 67.125C66.603 70.4531 67.5093 71.9531 69.2124 72.2969C69.978 72.4531 71.0718 72.0938 71.8843 71.75C73.0905 71.3469 74.228 70.7625 75.2562 70.0156C77.2093 68.5781 79.0999 66.5625 78.9718 63.8281C78.9249 62.5938 78.5812 61.3594 78.128 60.1719C80.5812 59.1406 83.7687 58.5781 87.8312 59.0469C96.5312 60.0625 98.2343 65.5 97.9062 67.7656C97.578 70.0313 95.7499 71.2969 95.1405 71.6719C94.5312 72.0469 94.3437 72.1875 94.3905 72.4688C94.4687 72.875 94.7499 72.8594 95.2655 72.7656C95.9843 72.6406 99.828 70.9219 99.9999 66.7188C100.25 61.4063 95.1405 55.5625 86.0937 55.6094L86.0874 55.6125ZM19.028 78.2219C16.153 81.3625 12.1249 82.55 10.3905 81.55C8.53116 80.4688 9.26554 75.8469 12.8093 72.5C14.9655 70.4688 17.7468 68.5938 19.5905 67.4375C20.0124 67.1875 20.6218 66.8125 21.3718 66.3594C21.4327 66.3203 21.4953 66.2838 21.5593 66.25C21.6999 66.1563 21.8562 66.0781 22.0124 65.9844C23.3062 70.7344 22.0593 74.9219 19.028 78.2188V78.2219ZM40.0218 63.9406C39.0218 66.3938 36.9155 72.6438 35.6312 72.3156C34.5374 72.0344 33.8655 67.2688 35.4124 62.5813C36.1937 60.2219 37.8499 57.4094 38.8343 56.3156C40.4124 54.55 42.1468 53.9875 42.553 54.6906C43.0999 55.6125 40.6468 62.4094 40.0218 63.9406ZM57.3655 72.2219C56.9437 72.4406 56.553 72.5813 56.3655 72.4719C56.2249 72.3938 56.5374 72.0969 56.5374 72.0969C56.5374 72.0969 58.7093 69.7688 59.5687 68.7063C60.0687 68.0813 60.6468 67.3469 61.2718 66.5344C61.2718 66.6125 61.2874 66.6906 61.2874 66.7844C61.2687 69.5813 58.5812 71.4719 57.3624 72.2219H57.3655ZM70.7405 69.175C70.428 68.9563 70.4749 68.2219 71.5218 65.9406C71.928 65.05 72.8655 63.55 74.4905 62.1125C74.6749 62.6563 74.7749 63.225 74.7874 63.8C74.7718 67.3156 72.2562 68.6281 70.7405 69.175Z" fill="white" fill-opacity="0.5"/>
</svg>
