<svg width="1180" height="100" viewBox="0 0 1180 100" fill="none" xmlns="http://www.w3.org/2000/svg">
<path d="M63.8833 36.1167C67.4928 36.0084 70.9181 34.4984 73.4329 31.907C75.9477 29.3156 77.3542 25.8465 77.3542 22.2354C77.3542 18.6244 75.9477 15.1553 73.4329 12.5639C70.9181 9.97248 67.4928 8.46251 63.8833 8.35419H36.1167C32.5072 8.46251 29.0819 9.97248 26.5671 12.5639C24.0523 15.1553 22.6458 18.6244 22.6458 22.2354C22.6458 25.8465 24.0523 29.3156 26.5671 31.907C29.0819 34.4984 32.5072 36.0084 36.1167 36.1167C32.4757 36.1798 29.0051 37.6704 26.4526 40.2676C23.9 42.8647 22.4697 46.3606 22.4697 50.0021C22.4697 53.6436 23.9 57.1395 26.4526 59.7366C29.0051 62.3338 32.4757 63.8244 36.1167 63.8875C32.4935 63.9763 29.0485 65.478 26.5173 68.0719C23.9862 70.6659 22.5693 74.1466 22.5693 77.7709C22.5693 81.3951 23.9862 84.8758 26.5173 87.4698C29.0485 90.0637 32.4935 91.5654 36.1167 91.6542C39.7988 91.652 43.3294 90.188 45.9327 87.5839C48.536 84.9799 49.9989 81.4488 50 77.7667V36.1167H63.8833Z" fill="white" fill-opacity="0.5"/>
<path d="M63.8833 63.8834C71.5509 63.8834 77.7667 57.6676 77.7667 50C77.7667 42.3325 71.5509 36.1167 63.8833 36.1167C56.2158 36.1167 50 42.3325 50 50C50 57.6676 56.2158 63.8834 63.8833 63.8834Z" fill="white" fill-opacity="0.5"/>
<path d="M284.18 9.375L290.625 82.2852L320 90.625L349.258 82.2852L355.83 9.375H284.18ZM342.285 26.6699L341.817 31.2793L341.651 33.1836H307.334L308.135 42.3828H340.86L340.537 44.7559L338.467 68.4082L338.301 69.9902L320.039 75.0293V75.0586H319.922L319.893 75.0684V75.0586H319.883L301.465 69.9805L300.352 55.8594H309.248L309.883 63.0078L319.883 65.7129H319.922L329.883 63.0176L330.996 51.4355H319.893V51.4258H299.883L297.656 26.6699L297.49 24.2969H342.442L342.285 26.6699Z" fill="white" fill-opacity="0.5"/>
<path d="M557.467 13.0958H622.529L616.612 79.9041L589.929 87.4541L563.392 79.8999L557.467 13.0958ZM610.417 26.7666L569.583 26.7583L570.242 34.8791L601.612 34.8874L600.825 43.3041H580.25L580.996 51.2749H600.15L599.017 62.1916L590 64.6833L580.846 62.1708L580.258 55.6333H572.175L573.075 67.5791L590 72.8499L606.646 68.1124L610.417 26.7666Z" fill="white" fill-opacity="0.5"/>
<path d="M857.162 69.2063C857.069 69.375 857.116 69.3 857.162 69.2063V69.2063ZM896.087 55.6125C892.944 55.6125 889.844 56.3313 887.025 57.7219C886.103 55.8625 885.15 54.2375 884.994 53.0188C884.806 51.5969 884.603 50.7531 884.822 49.0656C885.041 47.3781 886.025 44.9875 886.009 44.8156C885.994 44.6438 885.791 43.7844 883.775 43.7688C881.759 43.7531 880.025 44.1594 879.822 44.6906C879.465 45.6613 879.188 46.6594 878.994 47.675C878.634 49.5031 874.966 56.0344 872.887 59.4406C872.2 58.1125 871.622 56.9406 871.497 56.0031C871.309 54.5813 871.106 53.7375 871.325 52.05C871.544 50.3625 872.528 47.9719 872.512 47.8C872.497 47.6281 872.294 46.7688 870.281 46.7531C868.269 46.7375 866.531 47.1438 866.328 47.675C866.125 48.2063 865.906 49.4563 865.5 50.6594C865.094 51.8625 860.203 62.7375 858.925 65.5656C858.269 67.0031 857.706 68.1594 857.3 68.9406C857.237 69.0656 857.191 69.1438 857.159 69.2063C857.206 69.1281 857.237 69.05 857.237 69.0813C856.894 69.7531 856.691 70.1281 856.691 70.1281V70.1438C856.425 70.6438 856.128 71.0969 855.987 71.0969C855.894 71.0969 855.691 69.7844 856.034 67.9875C856.769 64.2063 858.503 58.3313 858.487 58.1281C858.472 58.0188 858.816 57.0031 857.347 56.4563C855.925 55.9406 855.409 56.8 855.284 56.8C855.159 56.8 855.066 57.1125 855.066 57.1125C855.066 57.1125 856.644 50.4875 852.034 50.4875C849.159 50.4875 845.159 53.6438 843.194 56.5031C841.959 57.175 839.287 58.6281 836.475 60.175L833.241 61.9563C833.162 61.8781 833.1 61.8 833.022 61.7219C827.428 55.7531 817.103 51.5344 817.541 43.5188C817.697 40.5969 818.712 32.925 837.397 23.6125C852.709 15.9875 864.95 18.0813 867.059 22.7375C870.091 29.3781 860.512 41.7375 844.612 43.5188C838.55 44.1906 835.366 41.8469 834.569 40.9719C833.741 40.05 833.616 40.0031 833.303 40.175C832.787 40.4563 833.116 41.2688 833.303 41.7531C833.772 42.9875 835.725 45.175 839.053 46.2688C841.975 47.2219 849.081 47.7531 857.672 44.425C867.325 40.7063 874.841 30.3469 872.634 21.675C870.391 12.8625 855.778 9.97188 841.962 14.8781C833.728 17.8 824.825 22.3938 818.422 28.3781C810.812 35.5031 809.597 41.7063 810.097 44.3C811.878 53.5031 824.562 59.5031 829.637 63.9406L828.934 64.3313C826.387 65.5969 816.719 70.6594 814.297 76.0031C811.562 82.0656 814.75 86.4094 816.841 87.0031C823.372 88.8156 830.056 85.55 833.65 80.1906C837.244 74.8313 836.806 67.8313 835.15 64.6438C835.134 64.5969 835.103 64.5656 835.087 64.5188C836.962 63.4082 838.853 62.3248 840.759 61.2688C840.134 62.9563 839.681 64.9875 839.447 67.925C839.166 71.3625 840.587 75.8156 842.431 77.5656C843.244 78.3313 844.225 78.3469 844.837 78.3469C846.994 78.3469 847.962 76.5656 849.041 74.4406C850.369 71.8469 851.541 68.8313 851.541 68.8313C851.541 68.8313 850.072 76.9875 854.087 76.9875C855.556 76.9875 857.025 75.0969 857.681 74.1281V74.1438C857.681 74.1438 857.712 74.0813 857.791 73.9563C857.947 73.7219 858.025 73.5813 858.025 73.5813V73.5344C858.619 72.5188 859.916 70.1906 861.869 66.3469C864.4 61.3781 866.819 55.175 866.819 55.175C867.053 56.5375 867.378 57.8844 867.787 59.2063C868.225 60.6906 869.147 62.3156 869.881 63.8938C869.287 64.7063 868.928 65.175 868.928 65.175C868.928 65.1875 868.934 65.1969 868.944 65.2063C868.475 65.8313 867.944 66.5031 867.397 67.1594C865.4 69.5344 863.022 72.2531 862.709 73.0344C862.334 73.9563 862.428 74.6438 863.147 75.175C863.678 75.5813 864.616 75.6438 865.6 75.5656C867.397 75.4406 868.662 75.0031 869.272 74.7219C870.396 74.3192 871.458 73.7617 872.428 73.0656C874.381 71.6281 875.569 69.5656 875.459 66.8469C875.397 65.3469 874.912 63.8469 874.319 62.4406C874.491 62.1906 874.678 61.925 874.85 61.6594C876.883 58.6255 878.715 55.4614 880.334 52.1875C880.569 53.55 880.891 54.8969 881.303 56.2188C881.678 57.4844 882.412 58.875 883.084 60.2344C880.178 62.5938 878.381 65.3281 877.759 67.125C876.603 70.4531 877.509 71.9531 879.212 72.2969C879.978 72.4531 881.072 72.0938 881.884 71.75C883.091 71.3469 884.228 70.7625 885.256 70.0156C887.209 68.5781 889.1 66.5625 888.972 63.8281C888.925 62.5938 888.581 61.3594 888.128 60.1719C890.581 59.1406 893.769 58.5781 897.831 59.0469C906.531 60.0625 908.234 65.5 907.906 67.7656C907.578 70.0313 905.75 71.2969 905.141 71.6719C904.531 72.0469 904.344 72.1875 904.391 72.4688C904.469 72.875 904.75 72.8594 905.266 72.7656C905.984 72.6406 909.828 70.9219 910 66.7188C910.25 61.4063 905.141 55.5625 896.094 55.6094L896.087 55.6125ZM829.028 78.2219C826.153 81.3625 822.125 82.55 820.391 81.55C818.531 80.4688 819.266 75.8469 822.809 72.5C824.966 70.4688 827.747 68.5938 829.591 67.4375C830.012 67.1875 830.622 66.8125 831.372 66.3594C831.433 66.3203 831.495 66.2838 831.559 66.25C831.7 66.1563 831.856 66.0781 832.012 65.9844C833.306 70.7344 832.059 74.9219 829.028 78.2188V78.2219ZM850.022 63.9406C849.022 66.3938 846.916 72.6438 845.631 72.3156C844.537 72.0344 843.866 67.2688 845.412 62.5813C846.194 60.2219 847.85 57.4094 848.834 56.3156C850.412 54.55 852.147 53.9875 852.553 54.6906C853.1 55.6125 850.647 62.4094 850.022 63.9406ZM867.366 72.2219C866.944 72.4406 866.553 72.5813 866.366 72.4719C866.225 72.3938 866.537 72.0969 866.537 72.0969C866.537 72.0969 868.709 69.7688 869.569 68.7063C870.069 68.0813 870.647 67.3469 871.272 66.5344C871.272 66.6125 871.287 66.6906 871.287 66.7844C871.269 69.5813 868.581 71.4719 867.362 72.2219H867.366ZM880.741 69.175C880.428 68.9563 880.475 68.2219 881.522 65.9406C881.928 65.05 882.866 63.55 884.491 62.1125C884.675 62.6563 884.775 63.225 884.787 63.8C884.772 67.3156 882.256 68.6281 880.741 69.175Z" fill="white" fill-opacity="0.5"/>
<path d="M1180 48.7042C1180 42.0792 1171.7 35.8 1158.98 31.9084C1161.92 18.9459 1160.62 8.62919 1154.87 5.32502C1153.47 4.54469 1151.9 4.1519 1150.3 4.18752V8.72919C1151.24 8.72919 1151.99 8.91669 1152.62 9.26252C1155.4 10.8542 1156.6 16.9042 1155.66 24.6917C1155.44 26.6084 1155.07 28.625 1154.62 30.6834C1150.36 29.6568 1146.04 28.9149 1141.68 28.4625C1139.08 24.8804 1136.25 21.4756 1133.2 18.2709C1139.85 12.0959 1146.08 8.71252 1150.32 8.71252V4.16669C1144.72 4.16669 1137.38 8.16252 1129.96 15.0917C1122.54 8.20835 1115.2 4.25002 1109.6 4.25002V8.79169C1113.82 8.79169 1120.08 12.1584 1126.72 18.2917C1123.87 21.2917 1121.01 24.6917 1118.3 28.4625C1113.93 28.9099 1109.6 29.6589 1105.34 30.7042C1104.87 28.6667 1104.52 26.6917 1104.27 24.7959C1103.32 17.0042 1104.5 10.9542 1107.25 9.34585C1107.86 8.97919 1108.66 8.81252 1109.6 8.81252V4.27085C1107.89 4.27085 1106.33 4.63752 1104.99 5.40835C1099.26 8.71252 1097.98 19.0042 1100.93 31.9292C1088.25 35.8459 1080 42.1 1080 48.7042C1080 55.3292 1088.3 61.6084 1101.02 65.4959C1098.08 78.4625 1099.38 88.7792 1105.13 92.0792C1106.46 92.8542 1108.01 93.2209 1109.72 93.2209C1115.32 93.2209 1122.66 89.225 1130.08 82.2959C1137.5 89.1834 1144.84 93.1375 1150.45 93.1375C1152.05 93.1715 1153.64 92.7775 1155.05 91.9959C1160.78 88.6959 1162.06 78.4042 1159.11 65.4792C1171.75 61.5875 1180 55.3084 1180 48.7042ZM1153.46 35.1084C1152.67 37.8328 1151.75 40.519 1150.71 43.1584C1149 39.8448 1147.13 36.6199 1145.1 33.4959C1148 33.925 1150.79 34.4542 1153.46 35.1084H1153.46ZM1144.12 56.8167C1142.54 59.5667 1140.9 62.1792 1139.21 64.6042C1133.1 65.1432 1126.95 65.1502 1120.83 64.625C1117.32 59.6133 1114.25 54.3074 1111.66 48.7667C1114.25 43.213 1117.3 37.8884 1120.79 32.85C1126.91 32.3099 1133.06 32.3015 1139.17 32.825C1140.86 35.25 1142.52 37.8417 1144.1 40.575C1145.65 43.2417 1147.06 45.95 1148.35 48.6834C1147.05 51.4498 1145.64 54.1631 1144.12 56.8167ZM1150.71 54.1667C1151.81 56.8959 1152.75 59.6292 1153.52 62.2792C1150.85 62.9334 1148.04 63.4834 1145.12 63.9084C1147.15 60.7559 1149.01 57.5047 1150.71 54.1667ZM1130.04 75.9167C1128.15 73.9584 1126.25 71.7792 1124.37 69.3917C1126.21 69.475 1128.08 69.5375 1129.98 69.5375C1131.9 69.5375 1133.79 69.4959 1135.65 69.3917C1133.81 71.7792 1131.92 73.9584 1130.04 75.9167ZM1114.88 63.9084C1112.07 63.5013 1109.28 62.9646 1106.52 62.3C1107.27 59.6709 1108.21 56.9584 1109.27 54.25C1110.1 55.875 1110.98 57.5084 1111.94 59.1417C1112.9 60.7709 1113.88 62.3625 1114.88 63.9084ZM1129.94 21.4917C1131.83 23.45 1133.73 25.6292 1135.6 28.0167C1133.77 27.9334 1131.9 27.8709 1130 27.8709C1128.08 27.8709 1126.19 27.9125 1124.33 28.0167C1126.17 25.6292 1128.06 23.45 1129.94 21.4917ZM1114.85 33.5C1112.83 36.6456 1110.97 39.8899 1109.27 43.2209C1108.2 40.5644 1107.26 37.857 1106.46 35.1084C1109.12 34.475 1111.94 33.925 1114.85 33.5ZM1096.41 59.0167C1089.19 55.9417 1084.52 51.9042 1084.52 48.7042C1084.52 45.5042 1089.19 41.4459 1096.41 38.3917C1098.16 37.6375 1100.08 36.9625 1102.05 36.3334C1103.22 40.325 1104.75 44.4834 1106.64 48.7459C1104.85 52.755 1103.34 56.8812 1102.12 61.0959C1100.18 60.4965 1098.28 59.8026 1096.41 59.0167ZM1107.38 88.1417C1104.6 86.5584 1103.4 80.5 1104.34 72.7167C1104.56 70.8 1104.93 68.7792 1105.38 66.7209C1109.37 67.7 1113.73 68.4542 1118.32 68.9459C1120.92 72.5279 1123.75 75.9327 1126.8 79.1375C1120.15 85.3125 1113.92 88.6959 1109.67 88.6959C1108.87 88.7046 1108.08 88.5157 1107.38 88.1459V88.1417ZM1155.72 72.6125C1156.68 80.4 1155.5 86.4542 1152.75 88.0625C1152.14 88.4292 1151.34 88.5917 1150.4 88.5917C1146.18 88.5917 1139.92 85.2292 1133.28 79.0917C1136.13 76.1 1138.99 72.6959 1141.7 68.925C1146.07 68.4776 1150.4 67.7286 1154.66 66.6834C1155.13 68.7417 1155.5 70.7167 1155.72 72.6125ZM1163.57 59.0167C1161.82 59.7709 1159.9 60.4459 1157.92 61.075C1156.68 56.8388 1155.15 52.6919 1153.34 48.6625C1155.22 44.425 1156.72 40.2875 1157.86 36.3125C1159.88 36.9417 1161.8 37.6375 1163.59 38.3917C1170.81 41.4667 1175.47 45.5042 1175.47 48.7042C1175.45 51.9042 1170.79 55.9625 1163.57 59.0167Z" fill="white" fill-opacity="0.5"/>
<path d="M1129.98 58.0208C1132.45 58.0208 1134.82 57.0393 1136.57 55.2921C1138.31 53.5448 1139.3 51.1751 1139.3 48.7042C1139.3 46.2332 1138.31 43.8635 1136.57 42.1163C1134.82 40.3691 1132.45 39.3875 1129.98 39.3875C1127.51 39.3875 1125.14 40.3691 1123.39 42.1163C1121.64 43.8635 1120.66 46.2332 1120.66 48.7042C1120.66 51.1751 1121.64 53.5448 1123.39 55.2921C1125.14 57.0393 1127.51 58.0208 1129.98 58.0208Z" fill="white" fill-opacity="0.5"/>
</svg>
