<svg width="288" height="295" viewBox="0 0 288 295" fill="none" xmlns="http://www.w3.org/2000/svg">
<rect width="288" height="295" fill="#C4C4C4"/>
<path d="M36.6 216.293V224.693C36.6 225.533 36.8067 226.18 37.22 226.633C37.6333 227.087 38.24 227.313 39.04 227.313C39.84 227.313 40.4533 227.087 40.88 226.633C41.3067 226.18 41.52 225.533 41.52 224.693V216.293H44.94V224.673C44.94 225.927 44.6733 226.987 44.14 227.853C43.6067 228.72 42.8867 229.373 41.98 229.813C41.0867 230.253 40.0867 230.473 38.98 230.473C37.8733 230.473 36.88 230.26 36 229.833C35.1333 229.393 34.4467 228.74 33.94 227.873C33.4333 226.993 33.18 225.927 33.18 224.673V216.293H36.6ZM50.7616 216.293V230.333H47.3416V216.293H50.7616ZM60.86 211.333L55.5 234.073H52.2L57.56 211.333H60.86ZM65.6625 216.293V224.693C65.6625 225.533 65.8692 226.18 66.2825 226.633C66.6958 227.087 67.3025 227.313 68.1025 227.313C68.9025 227.313 69.5158 227.087 69.9425 226.633C70.3692 226.18 70.5825 225.533 70.5825 224.693V216.293H74.0025V224.673C74.0025 225.927 73.7358 226.987 73.2025 227.853C72.6692 228.72 71.9492 229.373 71.0425 229.813C70.1492 230.253 69.1492 230.473 68.0425 230.473C66.9358 230.473 65.9425 230.26 65.0625 229.833C64.1958 229.393 63.5092 228.74 63.0025 227.873C62.4958 226.993 62.2425 225.927 62.2425 224.673V216.293H65.6625ZM85.0041 230.333L82.1441 226.033L79.6241 230.333H75.7441L80.2441 223.193L75.6441 216.293H79.6241L82.4441 220.533L84.9241 216.293H88.8041L84.3441 223.373L88.9841 230.333H85.0041ZM38.5 240.293C39.98 240.293 41.2733 240.587 42.38 241.173C43.4867 241.76 44.34 242.587 44.94 243.653C45.5533 244.707 45.86 245.927 45.86 247.313C45.86 248.687 45.5533 249.907 44.94 250.973C44.34 252.04 43.48 252.867 42.36 253.453C41.2533 254.04 39.9667 254.333 38.5 254.333H33.24V240.293H38.5ZM38.28 251.373C39.5733 251.373 40.58 251.02 41.3 250.313C42.02 249.607 42.38 248.607 42.38 247.313C42.38 246.02 42.02 245.013 41.3 244.293C40.58 243.573 39.5733 243.213 38.28 243.213H36.66V251.373H38.28ZM58.2912 248.573C58.2912 248.893 58.2713 249.227 58.2313 249.573H50.4913C50.5446 250.267 50.7646 250.8 51.1513 251.173C51.5513 251.533 52.0379 251.713 52.6113 251.713C53.4646 251.713 54.0579 251.353 54.3913 250.633H58.0313C57.8446 251.367 57.5046 252.027 57.0113 252.613C56.5313 253.2 55.9246 253.66 55.1913 253.993C54.4579 254.327 53.6379 254.493 52.7313 254.493C51.6379 254.493 50.6646 254.26 49.8113 253.793C48.9579 253.327 48.2913 252.66 47.8113 251.793C47.3313 250.927 47.0913 249.913 47.0913 248.753C47.0913 247.593 47.3246 246.58 47.7913 245.713C48.2713 244.847 48.9379 244.18 49.7913 243.713C50.6446 243.247 51.6246 243.013 52.7313 243.013C53.8113 243.013 54.7713 243.24 55.6113 243.693C56.4513 244.147 57.1046 244.793 57.5713 245.633C58.0513 246.473 58.2912 247.453 58.2912 248.573ZM54.7913 247.673C54.7913 247.087 54.5913 246.62 54.1913 246.273C53.7913 245.927 53.2913 245.753 52.6913 245.753C52.1179 245.753 51.6313 245.92 51.2313 246.253C50.8446 246.587 50.6046 247.06 50.5113 247.673H54.7913ZM64.6355 254.493C63.6621 254.493 62.7955 254.327 62.0355 253.993C61.2755 253.66 60.6755 253.207 60.2355 252.633C59.7955 252.047 59.5488 251.393 59.4955 250.673H62.8755C62.9155 251.06 63.0955 251.373 63.4155 251.613C63.7355 251.853 64.1288 251.973 64.5955 251.973C65.0221 251.973 65.3488 251.893 65.5755 251.733C65.8155 251.56 65.9355 251.34 65.9355 251.073C65.9355 250.753 65.7688 250.52 65.4355 250.373C65.1021 250.213 64.5621 250.04 63.8155 249.853C63.0155 249.667 62.3488 249.473 61.8155 249.273C61.2821 249.06 60.8221 248.733 60.4355 248.293C60.0488 247.84 59.8555 247.233 59.8555 246.473C59.8555 245.833 60.0288 245.253 60.3755 244.733C60.7355 244.2 61.2555 243.78 61.9355 243.473C62.6288 243.167 63.4488 243.013 64.3955 243.013C65.7955 243.013 66.8955 243.36 67.6955 244.053C68.5088 244.747 68.9755 245.667 69.0955 246.813H65.9355C65.8821 246.427 65.7088 246.12 65.4155 245.893C65.1355 245.667 64.7621 245.553 64.2955 245.553C63.8955 245.553 63.5888 245.633 63.3755 245.793C63.1621 245.94 63.0555 246.147 63.0555 246.413C63.0555 246.733 63.2221 246.973 63.5555 247.133C63.9021 247.293 64.4355 247.453 65.1555 247.613C65.9821 247.827 66.6555 248.04 67.1755 248.253C67.6955 248.453 68.1488 248.787 68.5355 249.253C68.9355 249.707 69.1421 250.32 69.1555 251.093C69.1555 251.747 68.9688 252.333 68.5955 252.853C68.2355 253.36 67.7088 253.76 67.0155 254.053C66.3355 254.347 65.5421 254.493 64.6355 254.493ZM72.9678 242.013C72.3678 242.013 71.8745 241.84 71.4878 241.493C71.1145 241.133 70.9278 240.693 70.9278 240.173C70.9278 239.64 71.1145 239.2 71.4878 238.853C71.8745 238.493 72.3678 238.313 72.9678 238.313C73.5545 238.313 74.0345 238.493 74.4078 238.853C74.7945 239.2 74.9878 239.64 74.9878 240.173C74.9878 240.693 74.7945 241.133 74.4078 241.493C74.0345 241.84 73.5545 242.013 72.9678 242.013ZM74.6678 243.173V254.333H71.2478V243.173H74.6678ZM81.3863 243.013C82.1729 243.013 82.8596 243.173 83.4463 243.493C84.0463 243.813 84.5063 244.233 84.8263 244.753V243.173H88.2463V254.313C88.2463 255.34 88.0396 256.267 87.6263 257.093C87.2263 257.933 86.6063 258.6 85.7663 259.093C84.9396 259.587 83.9063 259.833 82.6663 259.833C81.0129 259.833 79.6729 259.44 78.6463 258.653C77.6196 257.88 77.0329 256.827 76.8863 255.493H80.2663C80.3729 255.92 80.6263 256.253 81.0263 256.493C81.4263 256.747 81.9196 256.873 82.5063 256.873C83.2129 256.873 83.7729 256.667 84.1863 256.253C84.6129 255.853 84.8263 255.207 84.8263 254.313V252.733C84.4929 253.253 84.0329 253.68 83.4463 254.013C82.8596 254.333 82.1729 254.493 81.3863 254.493C80.4663 254.493 79.6329 254.26 78.8863 253.793C78.1396 253.313 77.5463 252.64 77.1063 251.773C76.6796 250.893 76.4663 249.88 76.4663 248.733C76.4663 247.587 76.6796 246.58 77.1063 245.713C77.5463 244.847 78.1396 244.18 78.8863 243.713C79.6329 243.247 80.4663 243.013 81.3863 243.013ZM84.8263 248.753C84.8263 247.9 84.5863 247.227 84.1063 246.733C83.6396 246.24 83.0663 245.993 82.3863 245.993C81.7063 245.993 81.1263 246.24 80.6463 246.733C80.1796 247.213 79.9463 247.88 79.9463 248.733C79.9463 249.587 80.1796 250.267 80.6463 250.773C81.1263 251.267 81.7063 251.513 82.3863 251.513C83.0663 251.513 83.6396 251.267 84.1063 250.773C84.5863 250.28 84.8263 249.607 84.8263 248.753ZM97.5205 243.053C98.8271 243.053 99.8671 243.48 100.64 244.333C101.427 245.173 101.82 246.333 101.82 247.813V254.333H98.4205V248.273C98.4205 247.527 98.2271 246.947 97.8405 246.533C97.4538 246.12 96.9338 245.913 96.2805 245.913C95.6271 245.913 95.1071 246.12 94.7205 246.533C94.3338 246.947 94.1405 247.527 94.1405 248.273V254.333H90.7205V243.173H94.1405V244.653C94.4871 244.16 94.9538 243.773 95.5405 243.493C96.1271 243.2 96.7871 243.053 97.5205 243.053ZM114.717 248.573C114.717 248.893 114.697 249.227 114.657 249.573H106.917C106.97 250.267 107.19 250.8 107.577 251.173C107.977 251.533 108.464 251.713 109.037 251.713C109.89 251.713 110.484 251.353 110.817 250.633H114.457C114.27 251.367 113.93 252.027 113.437 252.613C112.957 253.2 112.35 253.66 111.617 253.993C110.884 254.327 110.064 254.493 109.157 254.493C108.064 254.493 107.09 254.26 106.237 253.793C105.384 253.327 104.717 252.66 104.237 251.793C103.757 250.927 103.517 249.913 103.517 248.753C103.517 247.593 103.75 246.58 104.217 245.713C104.697 244.847 105.364 244.18 106.217 243.713C107.07 243.247 108.05 243.013 109.157 243.013C110.237 243.013 111.197 243.24 112.037 243.693C112.877 244.147 113.53 244.793 113.997 245.633C114.477 246.473 114.717 247.453 114.717 248.573ZM111.217 247.673C111.217 247.087 111.017 246.62 110.617 246.273C110.217 245.927 109.717 245.753 109.117 245.753C108.544 245.753 108.057 245.92 107.657 246.253C107.27 246.587 107.03 247.06 106.937 247.673H111.217ZM119.941 245.033C120.341 244.42 120.841 243.94 121.441 243.593C122.041 243.233 122.708 243.053 123.441 243.053V246.673H122.501C121.648 246.673 121.008 246.86 120.581 247.233C120.155 247.593 119.941 248.233 119.941 249.153V254.333H116.521V243.173H119.941V245.033Z" fill="#222A36"/>
<path fill-rule="evenodd" clip-rule="evenodd" d="M56.33 192.585C57.896 186.839 54.188 180.903 48.0965 179.298C41.2175 177.484 31.454 182.195 33.626 188.238C34.346 190.237 35.732 190.705 38.3465 190.741L38.51 190.744C39.8915 190.761 40.28 190.849 40.397 191.035C40.5875 191.342 40.5905 191.83 40.376 193.174C40.274 193.808 40.241 194.029 40.202 194.376C39.9635 196.487 40.3265 198.133 41.732 199.622C46.124 204.273 54.5615 199.072 56.33 192.585ZM36.455 187.253C35.3615 184.215 42.359 180.838 47.3195 182.145C51.845 183.338 54.5585 187.682 53.432 191.82C52.175 196.433 46.259 200.08 43.931 197.613C43.211 196.852 43.0325 196.038 43.184 194.7C43.2155 194.414 43.2455 194.217 43.34 193.629C43.6685 191.569 43.664 190.628 42.953 189.491C42.062 188.064 41.003 187.824 38.5475 187.793L38.3885 187.79C36.9425 187.771 36.599 187.654 36.4535 187.253H36.455Z" fill="#222A36"/>
<path d="M41 186.75C40.5027 186.75 40.0258 186.556 39.6742 186.21C39.3225 185.864 39.125 185.395 39.125 184.906C39.125 184.417 39.3225 183.948 39.6742 183.603C40.0258 183.257 40.5027 183.062 41 183.062C41.4973 183.062 41.9742 183.257 42.3258 183.603C42.6775 183.948 42.875 184.417 42.875 184.906C42.875 185.395 42.6775 185.864 42.3258 186.21C41.9742 186.556 41.4973 186.75 41 186.75Z" fill="#222A36"/>
<path d="M46.625 186.75C46.1277 186.75 45.6508 186.556 45.2992 186.21C44.9475 185.864 44.75 185.395 44.75 184.906C44.75 184.417 44.9475 183.948 45.2992 183.603C45.6508 183.257 46.1277 183.062 46.625 183.062C47.1223 183.062 47.5992 183.257 47.9508 183.603C48.3025 183.948 48.5 184.417 48.5 184.906C48.5 185.395 48.3025 185.864 47.9508 186.21C47.5992 186.556 47.1223 186.75 46.625 186.75Z" fill="#222A36"/>
<path d="M50.375 191.175C49.8777 191.175 49.4008 190.981 49.0492 190.635C48.6975 190.289 48.5 189.82 48.5 189.331C48.5 188.842 48.6975 188.373 49.0492 188.028C49.4008 187.682 49.8777 187.488 50.375 187.488C50.8723 187.488 51.3492 187.682 51.7008 188.028C52.0525 188.373 52.25 188.842 52.25 189.331C52.25 189.82 52.0525 190.289 51.7008 190.635C51.3492 190.981 50.8723 191.175 50.375 191.175Z" fill="#222A36"/>
<path d="M48.125 196.338C47.6277 196.338 47.1508 196.143 46.7992 195.798C46.4475 195.452 46.25 194.983 46.25 194.494C46.25 194.005 46.4475 193.536 46.7992 193.19C47.1508 192.844 47.6277 192.65 48.125 192.65C48.6223 192.65 49.0992 192.844 49.4508 193.19C49.8025 193.536 50 194.005 50 194.494C50 194.983 49.8025 195.452 49.4508 195.798C49.0992 196.143 48.6223 196.338 48.125 196.338Z" fill="#222A36"/>
<path d="M53.555 177.318C53.7329 177.224 53.9281 177.166 54.1291 177.149C54.33 177.131 54.5326 177.153 54.7246 177.214C54.9166 177.275 55.0941 177.374 55.2465 177.504C55.3989 177.634 55.523 177.793 55.6115 177.971L61.751 190.361C61.8535 190.584 61.8659 190.836 61.7857 191.068C61.7055 191.299 61.5387 191.492 61.3192 191.607C61.0997 191.721 60.844 191.75 60.6041 191.686C60.3641 191.622 60.158 191.47 60.0275 191.262L52.9655 179.359C52.864 179.188 52.7987 178.998 52.7735 178.801C52.7483 178.605 52.7638 178.405 52.819 178.215C52.8742 178.024 52.9679 177.846 53.0947 177.692C53.2214 177.538 53.3785 177.411 53.5565 177.318H53.555Z" fill="#222A36"/>
<path fill-rule="evenodd" clip-rule="evenodd" d="M50.8055 177.139C51.536 178.489 52.7645 178.866 53.9525 178.245C55.139 177.626 55.5095 176.412 54.779 175.062C53.945 173.516 52.157 172.115 50.972 172.733C49.787 173.353 49.97 175.593 50.807 177.139H50.8055ZM52.13 176.446C51.8644 175.921 51.7016 175.352 51.65 174.769C51.6277 174.525 51.6367 174.279 51.677 174.037L51.704 174.05C51.779 174.086 52.0115 174.192 52.3085 174.425C52.7615 174.78 53.2115 175.304 53.4545 175.754C53.798 176.388 53.7005 176.707 53.2475 176.944C52.7975 177.18 52.4735 177.08 52.13 176.447V176.446Z" fill="#222A36"/>
</svg>
