<svg width="25" height="25" viewBox="0 0 25 25" fill="none" xmlns="http://www.w3.org/2000/svg">
<path d="M19.3359 13.7047C18.1883 13.7047 17.1102 13.2203 16.1336 12.4274L16.3695 11.3086L16.3773 11.2641C16.593 10.0758 17.2602 8.07815 19.3352 8.07815C20.0818 8.07836 20.7979 8.37507 21.3259 8.90306C21.8539 9.43104 22.1506 10.1471 22.1508 10.8938C22.1495 11.6398 21.8524 12.3548 21.3245 12.882C20.7966 13.4091 20.0812 13.7053 19.3352 13.7055L19.3359 13.7047ZM19.3359 5.22893C16.6914 5.22893 14.6359 6.94612 13.8023 9.77424C12.5328 7.86565 11.5641 5.57112 11.0031 3.63831H8.15469V11.0477C8.15324 11.7509 7.87325 12.4249 7.37601 12.9221C6.87876 13.4194 6.20477 13.6994 5.50156 13.7008C4.79854 13.6987 4.12491 13.4186 3.6278 12.9214C3.13069 12.4243 2.8505 11.7507 2.84844 11.0477V3.63831H0V11.0477C0 14.0828 2.46953 16.5696 5.50156 16.5696C8.53672 16.5696 11.0031 14.0836 11.0031 11.0477V9.80627C11.5562 10.9578 12.2359 12.1297 13.0617 13.1633L11.3164 21.3625H14.2297L15.4953 15.4133C16.6023 16.1211 17.8758 16.5688 19.3367 16.5688C22.4617 16.5688 25.0008 14.0133 25.0008 10.8922C25.0008 7.76721 22.4617 5.22815 19.3367 5.22815L19.3359 5.22893Z" fill="white"/>
</svg>
