<svg width="25" height="25" viewBox="0 0 25 25" fill="none" xmlns="http://www.w3.org/2000/svg">
<path d="M24.4793 6.77812C24.3377 6.27316 24.062 5.81598 23.6814 5.45521C23.29 5.08333 22.8103 4.81733 22.2876 4.68229C20.3314 4.16666 12.4939 4.16666 12.4939 4.16666C9.22652 4.12949 5.95995 4.29299 2.71263 4.65625C2.18991 4.80126 1.71114 5.07321 1.31888 5.44791C0.933465 5.81875 0.654298 6.27604 0.508465 6.77708C0.158145 8.66431 -0.0120641 10.5806 0.00013173 12.5C-0.0123683 14.4177 0.157423 16.3333 0.508465 18.2229C0.651173 18.7219 0.929298 19.1771 1.31576 19.5448C1.70222 19.9125 2.18347 20.1781 2.71263 20.3187C4.69492 20.8333 12.4939 20.8333 12.4939 20.8333C15.7654 20.8706 19.0361 20.7071 22.2876 20.3437C22.8103 20.2087 23.29 19.9427 23.6814 19.5708C24.0668 19.2031 24.3408 18.7458 24.4783 18.2479C24.8377 16.3614 25.0125 14.4444 25.0001 12.524C25.0272 10.5954 24.8526 8.66934 24.4793 6.77708V6.77812ZM10.0022 16.0667V8.93437L16.5231 12.501L10.0022 16.0667Z" fill="white"/>
</svg>
